<svg xmlns="http://www.w3.org/2000/svg" xmlns:xlink="http://www.w3.org/1999/xlink" width="500" zoomAndPan="magnify" viewBox="0 0 375 374.999991" height="500" preserveAspectRatio="xMidYMid meet" version="1.0"><defs><g/><clipPath id="427102bcc4"><path d="M 116 117.691406 L 249 117.691406 L 249 215.191406 L 116 215.191406 Z M 116 117.691406 " clip-rule="nonzero"/></clipPath><clipPath id="78c7b798ef"><path d="M 142 156 L 240 156 L 240 215.191406 L 142 215.191406 Z M 142 156 " clip-rule="nonzero"/></clipPath></defs><rect x="-37.5" width="450" fill="#ffffff" y="-37.499999" height="449.999989" fill-opacity="1"/><rect x="-37.5" width="450" fill="#ffffff" y="-37.499999" height="449.999989" fill-opacity="1"/><rect x="-37.5" width="450" fill="#ff5757" y="-37.499999" height="449.999989" fill-opacity="1"/><g clip-path="url(#427102bcc4)"><path fill="#df9051" d="M 248.820312 133.902344 C 249.15625 135.636719 248.277344 136.972656 246.726562 137.617188 C 244.105469 140.378906 240.292969 142.109375 236.523438 143.011719 C 236.035156 143.128906 235.546875 143.230469 235.066406 143.320312 C 235.492188 144.074219 235.914062 144.832031 236.339844 145.585938 C 237.507812 147.671875 238.671875 149.761719 239.847656 151.839844 C 241.210938 154.257812 244.429688 160.542969 244.566406 160.921875 C 245.734375 164.160156 246.1875 167.714844 246.164062 171.152344 C 246.140625 175.222656 245.621094 179.390625 244.257812 183.238281 C 242.632812 187.832031 239.816406 192.101562 236.003906 195.054688 C 233.816406 196.753906 231.296875 198.015625 228.484375 198.65625 C 228.472656 198.660156 228.464844 198.660156 228.457031 198.660156 C 226.136719 200.128906 223.769531 201.527344 221.355469 202.847656 C 219.539062 203.84375 217.707031 204.804688 215.851562 205.730469 C 214.925781 206.191406 213.996094 206.648438 213.058594 207.09375 C 212.625 207.304688 212.183594 207.511719 211.746094 207.714844 C 211.539062 207.8125 211.328125 207.910156 211.121094 208.003906 C 211.089844 208.019531 211.050781 208.035156 211.003906 208.058594 C 210.972656 208.070312 210.9375 208.089844 210.898438 208.105469 C 207.078125 209.835938 203.207031 211.527344 199.257812 212.945312 C 197.054688 213.742188 194.789062 214.355469 192.488281 214.789062 C 192.441406 214.796875 192.285156 214.824219 192.144531 214.851562 C 191.941406 214.878906 191.464844 214.957031 191.464844 214.957031 C 190.933594 215.03125 190.394531 215.097656 189.855469 215.15625 C 189.765625 215.164062 189.675781 215.171875 189.585938 215.179688 C 186.324219 214.597656 183.089844 213.859375 179.898438 212.960938 C 177.644531 212.335938 175.410156 211.628906 173.203125 210.847656 C 172.324219 210.539062 171.453125 210.21875 170.585938 209.882812 C 170.503906 209.847656 169.535156 209.46875 169.394531 209.40625 C 168.792969 209.160156 168.191406 208.910156 167.59375 208.652344 C 163.351562 206.832031 159.230469 204.742188 155.257812 202.394531 C 153.84375 201.554688 152.449219 200.683594 151.074219 199.78125 C 150.949219 199.710938 150.824219 199.640625 150.699219 199.566406 C 148.726562 198.40625 146.875 197.023438 145.132812 195.53125 C 144.902344 195.347656 144.667969 195.175781 144.441406 194.992188 C 142.738281 193.632812 141.136719 192.144531 139.671875 190.527344 C 139.476562 190.3125 139.175781 190.054688 138.960938 189.789062 C 138.933594 189.726562 138.886719 189.640625 138.820312 189.558594 C 138.679688 189.375 138.539062 189.191406 138.394531 189.007812 C 138.382812 188.988281 138.363281 188.964844 138.347656 188.941406 C 137.535156 188.070312 136.730469 187.191406 135.949219 186.296875 C 133.21875 183.195312 131.105469 179.832031 130.660156 175.636719 C 130.410156 173.335938 130.691406 171.035156 131.1875 168.773438 C 131.183594 168.746094 131.179688 168.71875 131.179688 168.691406 C 131.179688 168.644531 131.171875 168.601562 131.171875 168.558594 C 131.910156 165.578125 132.777344 162.613281 133.703125 159.6875 C 134.515625 156.878906 135.332031 154.074219 136.144531 151.265625 C 135.953125 151.296875 135.757812 151.324219 135.5625 151.34375 C 135.433594 151.363281 135.304688 151.375 135.175781 151.386719 C 134.820312 151.417969 134.445312 151.445312 134.054688 151.464844 C 133.246094 151.5 128.875 152.167969 127.507812 152.023438 C 126.578125 151.925781 125.839844 151.703125 124.996094 151.398438 C 124.886719 151.363281 124.019531 151.042969 123.777344 150.9375 C 123.464844 150.800781 123.164062 150.652344 122.867188 150.480469 C 121.566406 149.726562 120.285156 148.730469 119.238281 147.640625 C 118.1875 146.539062 117.003906 145.117188 116.539062 143.65625 C 115.976562 141.90625 117.695312 139.828125 119.566406 140.433594 C 119.953125 140.558594 120.324219 140.726562 120.683594 140.914062 C 120.832031 140.863281 120.988281 140.824219 121.152344 140.800781 C 122.023438 140.65625 122.59375 140.625 123.421875 140.304688 C 123.421875 140.296875 123.886719 140.082031 124.101562 139.988281 C 124.125 139.96875 124.175781 139.945312 124.253906 139.890625 C 124.304688 139.859375 124.511719 139.699219 124.613281 139.628906 C 124.667969 139.542969 124.792969 139.378906 124.792969 139.375 C 125.28125 138.640625 126.082031 138.050781 126.667969 137.378906 C 127.3125 136.625 127.929688 135.851562 128.5625 135.089844 C 132.871094 129.925781 139.15625 125.710938 145.828125 124.5 C 148.171875 124.074219 150.429688 123.941406 152.660156 124.253906 C 155.242188 122.148438 158.179688 120.429688 161.5625 119.246094 C 165.296875 117.945312 169.21875 117.683594 173.113281 118.265625 C 176.726562 118.808594 180.136719 120.222656 183.71875 120.921875 C 184.5625 121.085938 185.410156 121.214844 186.265625 121.324219 C 186.277344 121.324219 186.320312 121.332031 186.367188 121.335938 C 186.519531 121.347656 186.726562 121.363281 186.792969 121.371094 C 187.191406 121.398438 187.589844 121.421875 187.980469 121.4375 C 188.347656 121.453125 188.710938 121.460938 189.082031 121.464844 C 189.402344 121.417969 189.722656 121.375 190.042969 121.328125 C 190.179688 121.308594 190.898438 121.191406 191.058594 121.171875 C 191.523438 121.089844 191.992188 121.007812 192.457031 120.917969 C 193.597656 120.699219 194.734375 120.460938 195.867188 120.199219 C 198.136719 119.671875 200.378906 119.046875 202.597656 118.347656 C 203.21875 118.148438 203.851562 118.101562 204.464844 118.171875 C 209.148438 117.6875 214.042969 119.089844 218.003906 121.621094 C 220.902344 122.019531 223.738281 122.734375 226.527344 123.683594 C 230.257812 124.957031 233.894531 126.488281 237.621094 127.777344 C 238.449219 128.0625 239.269531 128.367188 240.097656 128.652344 C 240.835938 128.898438 241.554688 129.136719 242.273438 129.433594 C 242.03125 129.355469 241.898438 129.316406 241.863281 129.304688 C 241.898438 129.320312 242.015625 129.359375 242.210938 129.425781 C 242.683594 129.605469 243.152344 129.789062 243.625 129.976562 C 244.0625 130.15625 244.503906 130.351562 244.921875 130.574219 C 245.273438 130.71875 245.59375 130.914062 245.882812 131.160156 C 245.777344 131.050781 245.871094 131.074219 246.167969 131.230469 C 247.273438 131.597656 248.589844 132.742188 248.820312 133.902344 " fill-opacity="1" fill-rule="nonzero"/></g><g clip-path="url(#78c7b798ef)"><path fill="#ffffff" d="M 237.296875 171.019531 C 235.183594 165.53125 231.613281 160.710938 227.070312 157 C 226.175781 156.265625 224.605469 156.511719 224.355469 157.804688 C 223.757812 160.902344 220.957031 163.039062 217.914062 163.441406 C 214.078125 163.949219 210.664062 162.171875 207.632812 159.996094 C 207.269531 159.738281 206.171875 160.058594 205.949219 160.210938 C 205.074219 160.816406 205.367188 161.953125 205.652344 162.785156 C 206.539062 165.347656 207.679688 167.894531 209.152344 170.171875 C 210.402344 172.101562 211.972656 173.757812 213.550781 175.417969 C 213.636719 175.234375 213.734375 175.054688 213.855469 174.871094 C 214.5 173.894531 216.113281 174.761719 215.460938 175.75 C 214.996094 176.457031 215.015625 177.167969 215.273438 177.851562 C 215.609375 178.378906 215.941406 178.910156 216.261719 179.449219 C 216.613281 179.886719 216.984375 180.296875 217.289062 180.667969 C 218.390625 182.003906 219.15625 183.523438 219.476562 185.238281 C 220.125 188.671875 219.191406 192.21875 217.316406 195.121094 C 215.527344 197.886719 213.058594 200.097656 210.46875 202.097656 C 207.8125 204.148438 205.007812 206.046875 201.949219 207.449219 C 195.476562 210.410156 188.617188 210.074219 182.058594 207.5625 C 178.765625 206.300781 175.648438 204.644531 172.644531 202.808594 C 169.804688 201.070312 167.007812 199.082031 165.085938 196.308594 C 163.3125 193.753906 162.347656 190.5 163.074219 187.414062 C 163.683594 184.804688 166.621094 180.851562 164.144531 178.429688 C 163.300781 177.601562 164.554688 176.269531 165.398438 177.09375 C 165.792969 177.480469 166.09375 177.894531 166.316406 178.328125 C 166.5 177.449219 166.707031 176.578125 167.03125 175.71875 C 167.71875 173.910156 168.628906 172.1875 169.574219 170.503906 C 170.386719 169.050781 175.320312 162.367188 171.746094 161.542969 C 170.179688 161.183594 168.644531 162.90625 167.625 163.832031 C 167.183594 164.238281 166.742188 164.648438 166.296875 165.058594 C 166 165.230469 165.707031 165.398438 165.417969 165.558594 C 163.972656 166.351562 162.347656 166.949219 160.691406 167.023438 C 158.070312 167.148438 154.917969 165.96875 153.886719 163.367188 C 153.46875 162.316406 152.308594 161.765625 151.285156 162.394531 C 143.074219 167.402344 140.445312 178.304688 143.144531 187.164062 C 144.597656 191.957031 147.296875 196.070312 150.699219 199.566406 C 150.824219 199.640625 150.949219 199.710938 151.074219 199.78125 C 152.449219 200.683594 153.84375 201.554688 155.257812 202.394531 C 159.230469 204.742188 163.351562 206.832031 167.59375 208.652344 C 168.191406 208.910156 168.792969 209.160156 169.394531 209.40625 C 169.539062 209.46875 170.503906 209.847656 170.585938 209.882812 C 171.453125 210.214844 172.328125 210.539062 173.203125 210.847656 C 175.410156 211.628906 177.644531 212.332031 179.894531 212.964844 C 183.089844 213.859375 186.324219 214.597656 189.585938 215.179688 C 189.675781 215.171875 189.765625 215.164062 189.855469 215.15625 C 190.394531 215.097656 190.929688 215.03125 191.464844 214.957031 C 191.464844 214.957031 191.941406 214.878906 192.144531 214.851562 C 192.285156 214.824219 192.441406 214.796875 192.488281 214.789062 C 194.789062 214.351562 197.054688 213.738281 199.257812 212.945312 C 203.207031 211.523438 207.082031 209.835938 210.902344 208.105469 C 210.9375 208.089844 210.96875 208.074219 211.003906 208.058594 C 211.050781 208.035156 211.089844 208.019531 211.117188 208.003906 C 211.328125 207.910156 211.539062 207.8125 211.746094 207.714844 C 212.1875 207.511719 212.625 207.300781 213.058594 207.09375 C 213.996094 206.648438 214.925781 206.191406 215.851562 205.726562 C 217.707031 204.800781 219.539062 203.839844 221.355469 202.847656 C 223.769531 201.527344 226.136719 200.128906 228.457031 198.664062 C 228.464844 198.660156 228.472656 198.660156 228.484375 198.65625 C 231.296875 198.015625 233.816406 196.753906 236.003906 195.054688 C 239.808594 187.683594 240.335938 178.90625 237.296875 171.019531 " fill-opacity="1" fill-rule="nonzero"/></g><path fill="#000000" d="M 171.871094 159.347656 C 172.925781 159.867188 173.804688 158.257812 172.746094 157.738281 C 167.605469 155.203125 161.542969 154.980469 156.257812 157.230469 C 155.1875 157.6875 155.710938 159.445312 156.796875 158.984375 C 161.636719 156.921875 167.140625 157.019531 171.871094 159.347656 " fill-opacity="1" fill-rule="nonzero"/><path fill="#000000" d="M 220.289062 152.476562 C 219.109375 151.777344 217.792969 151.640625 216.445312 151.667969 C 214.910156 151.699219 213.351562 151.789062 211.832031 152.015625 C 209.074219 152.433594 206.359375 153.464844 204.601562 155.734375 C 203.886719 156.660156 205.210938 157.925781 205.933594 156.992188 C 207.484375 154.988281 209.847656 154.121094 212.292969 153.792969 C 213.507812 153.628906 214.742188 153.570312 215.96875 153.519531 C 217.171875 153.46875 218.34375 153.457031 219.414062 154.089844 C 220.429688 154.691406 221.300781 153.078125 220.289062 152.476562 " fill-opacity="1" fill-rule="nonzero"/><path fill="#000000" d="M 146.640625 131.988281 C 141.804688 133.398438 137.476562 136.476562 134.011719 140.097656 C 132.296875 141.886719 130.910156 144.277344 128.402344 145.015625 C 125.894531 145.753906 123.273438 144.992188 120.730469 144.910156 C 120.074219 144.886719 119.785156 145.945312 120.421875 146.207031 C 122.769531 147.160156 125.433594 147.546875 127.941406 147.105469 C 130.632812 146.628906 132.316406 144.96875 134.019531 142.964844 C 137.667969 138.675781 142.179688 135.597656 147.011719 132.804688 C 147.460938 132.542969 147.125 131.847656 146.640625 131.988281 " fill-opacity="1" fill-rule="nonzero"/><path fill="#000000" d="M 143.667969 135.769531 C 141.390625 138.039062 139.433594 140.546875 137.78125 143.320312 C 136.960938 144.695312 136.203125 146.117188 135.539062 147.578125 C 134.984375 148.792969 134.355469 150.128906 134.054688 151.464844 C 134.445312 151.445312 134.820312 151.417969 135.175781 151.386719 C 135.304688 151.375 135.433594 151.363281 135.5625 151.34375 C 136.011719 150.335938 136.382812 149.273438 136.828125 148.285156 C 137.460938 146.878906 138.15625 145.503906 138.925781 144.164062 C 140.496094 141.433594 142.328125 138.816406 144.304688 136.371094 C 144.65625 135.9375 144.074219 135.367188 143.667969 135.769531 " fill-opacity="1" fill-rule="nonzero"/><path fill="#000000" d="M 244.457031 136.484375 C 242.613281 135.511719 240.527344 135.398438 238.5 135.136719 C 236.460938 134.875 234.535156 134.476562 232.738281 133.425781 C 229.574219 131.574219 227.214844 128.429688 223.777344 127.03125 C 223.550781 126.941406 223.355469 127.011719 223.242188 127.152344 C 222.503906 126.578125 221.75 126.027344 220.96875 125.5 C 220.546875 125.214844 220.0625 125.894531 220.445312 126.222656 C 223.835938 129.160156 227.0625 132.101562 229.773438 135.699219 C 232.15625 138.871094 234.046875 142.363281 236.339844 145.585938 C 235.914062 144.832031 235.492188 144.074219 235.066406 143.320312 C 235.546875 143.230469 236.035156 143.128906 236.523438 143.011719 C 234.839844 139.980469 232.804688 137.074219 230.664062 134.421875 C 230.191406 133.832031 229.695312 133.261719 229.195312 132.703125 C 230.136719 133.488281 231.109375 134.222656 232.160156 134.855469 C 233.859375 135.878906 235.753906 136.410156 237.699219 136.753906 C 239.777344 137.121094 241.875 137.4375 243.960938 137.761719 C 244.695312 137.875 245.1875 136.871094 244.457031 136.484375 " fill-opacity="1" fill-rule="nonzero"/><path fill="#000000" d="M 217.289062 180.667969 C 216.984375 180.296875 216.613281 179.886719 216.261719 179.449219 C 215.859375 178.949219 215.488281 178.410156 215.273438 177.851562 C 215.015625 177.167969 214.996094 176.457031 215.460938 175.75 C 216.113281 174.761719 214.5 173.894531 213.855469 174.871094 C 213.734375 175.054688 213.636719 175.234375 213.550781 175.417969 C 212.394531 177.929688 214.660156 180.21875 216.121094 182.117188 C 218.078125 184.652344 218.230469 188.003906 217.292969 190.976562 C 216.3125 194.078125 214.078125 196.617188 211.691406 198.742188 C 209.371094 200.800781 206.800781 202.664062 204.121094 204.238281 C 204.109375 204.230469 204.089844 204.226562 204.070312 204.222656 C 202.84375 205.015625 201.335938 205.566406 200.078125 205.976562 C 199.539062 206.15625 198.941406 206.332031 198.328125 206.460938 C 197.261719 206.796875 195.941406 207.003906 194.960938 206.714844 C 194.316406 206.523438 193.628906 206.246094 193.527344 205.40625 C 193.425781 204.574219 193.140625 201.085938 192.949219 198.921875 C 193.960938 198.765625 194.949219 198.425781 195.882812 197.84375 C 196.601562 197.394531 197.332031 196.847656 198.039062 196.234375 C 196.746094 196.230469 195.484375 195.851562 194.519531 194.898438 C 192.929688 193.320312 192.421875 190.429688 193.785156 188.550781 C 194.464844 187.617188 195.683594 187.101562 196.800781 187.589844 C 197.101562 187.722656 197.476562 187.925781 197.640625 188.113281 C 197.808594 188.296875 198.351562 188.933594 198.15625 189.722656 C 198.136719 189.8125 198.105469 189.898438 198.074219 189.976562 C 197.90625 190.492188 197.410156 190.820312 197.117188 190.957031 C 196.824219 191.089844 196.320312 191.199219 196.097656 191.136719 C 195.699219 191.109375 195.316406 190.96875 195.027344 190.714844 C 195.015625 190.828125 195.007812 190.9375 195.007812 191.050781 C 194.996094 191.699219 195.167969 192.355469 195.511719 192.902344 C 196.324219 194.207031 197.875 194.355469 199.265625 194.050781 C 199.675781 193.960938 200.070312 193.835938 200.441406 193.679688 C 201.046875 192.882812 201.554688 192.035156 201.910156 191.1875 C 202.53125 189.683594 202.097656 187.617188 201.945312 185.59375 C 201.796875 183.574219 200.964844 181.554688 199.5 180.152344 C 197.457031 178.203125 193.289062 178.386719 192.03125 178.261719 C 190.773438 178.140625 189.203125 178.09375 187.835938 178.242188 C 184.847656 178.5625 181.601562 179.335938 179.5625 181.722656 C 178.238281 183.269531 177.808594 184.980469 177.785156 187.144531 C 177.769531 188.570312 177.921875 190.269531 178.488281 191.863281 C 179.207031 192.875 180.136719 193.722656 181.316406 194.3125 C 182.882812 195.09375 184.4375 195.066406 185.5 193.558594 C 185.902344 192.980469 186.246094 192.25 186.222656 191.53125 C 186.214844 191.214844 186.101562 190.816406 185.855469 190.566406 C 185.851562 190.609375 185.851562 190.648438 185.839844 190.6875 C 185.785156 191.179688 185.496094 191.640625 185.058594 191.898438 C 184.027344 192.761719 182.820312 191.734375 182.671875 190.398438 C 182.570312 189.765625 182.949219 189.195312 183.257812 188.941406 C 183.570312 188.683594 183.769531 188.554688 183.984375 188.460938 C 184.507812 188.226562 184.914062 188.226562 185.398438 188.324219 C 185.941406 188.4375 186.664062 188.8125 187.175781 189.335938 C 189 191.195312 187.660156 194.363281 185.917969 195.753906 C 184.855469 196.605469 183.640625 196.8125 182.4375 196.617188 C 184.058594 197.703125 185.828125 198.449219 186.917969 198.621094 C 188.695312 198.90625 189.742188 198.960938 191.125 199.015625 C 191.320312 201.230469 191.765625 204.847656 191.714844 205.65625 C 191.664062 206.460938 191.175781 206.882812 190.574219 207.058594 C 188.320312 207.722656 186 207.03125 183.882812 206.210938 C 183.804688 206.183594 183.730469 206.15625 183.648438 206.121094 C 183.5625 206.117188 183.480469 206.113281 183.394531 206.105469 C 180.425781 205.050781 177.605469 203.601562 174.886719 202.015625 C 172.007812 200.332031 169.019531 198.492188 166.96875 195.800781 C 165.851562 194.332031 165.003906 192.597656 164.738281 190.761719 C 164.457031 188.832031 165 187.128906 165.71875 185.363281 C 166.625 183.136719 167.433594 180.484375 166.316406 178.328125 C 166.09375 177.894531 165.792969 177.480469 165.398438 177.09375 C 164.554688 176.269531 163.300781 177.601562 164.144531 178.429688 C 166.621094 180.851562 163.683594 184.804688 163.074219 187.414062 C 162.347656 190.5 163.3125 193.753906 165.085938 196.308594 C 167.007812 199.082031 169.804688 201.070312 172.644531 202.808594 C 175.648438 204.644531 178.765625 206.300781 182.058594 207.5625 C 188.617188 210.074219 195.476562 210.410156 201.949219 207.449219 C 205.007812 206.046875 207.8125 204.148438 210.46875 202.097656 C 213.058594 200.097656 215.527344 197.886719 217.316406 195.121094 C 219.191406 192.21875 220.125 188.671875 219.476562 185.238281 C 219.15625 183.523438 218.390625 182.003906 217.289062 180.667969 " fill-opacity="1" fill-rule="nonzero"/><g fill="#000000" fill-opacity="1"><g transform="translate(132.205522, 254.215527)"><g><path d="M 27.210938 -5.804688 C 27.105469 -6.304688 27 -6.910156 26.820312 -7.480469 C 24.863281 -14.175781 21.476562 -20.230469 18.164062 -25.824219 C 17.347656 -27.210938 16.277344 -27.890625 15.066406 -27.890625 C 14.355469 -27.890625 13.605469 -27.675781 12.785156 -27.210938 C 11.789062 -26.605469 10.933594 -25.859375 10.4375 -25.109375 C 9.367188 -23.578125 8.476562 -21.871094 7.765625 -20.375 C 6.484375 -17.703125 5.484375 -15.457031 4.628906 -13.320312 C 3.3125 -10.007812 2.316406 -7.195312 1.460938 -4.523438 C 0.960938 -3.027344 1.746094 -1.816406 2.671875 -1.390625 C 3.8125 -0.925781 4.914062 -1.425781 5.734375 -2.777344 C 6.125 -3.453125 6.484375 -4.167969 6.839844 -4.878906 C 7.160156 -5.519531 7.515625 -6.234375 7.90625 -6.875 C 8.15625 -7.335938 8.832031 -7.800781 9.332031 -7.800781 C 11.183594 -7.765625 13.035156 -7.695312 14.851562 -7.621094 C 16.207031 -7.550781 17.59375 -7.515625 18.949219 -7.445312 C 20.195312 -7.410156 20.550781 -6.695312 20.765625 -5.949219 C 21.050781 -4.878906 21.371094 -4.058594 21.761719 -3.382812 C 22.511719 -2.101562 23.863281 -1.566406 25.183594 -1.960938 C 26.535156 -2.386719 27.320312 -3.632812 27.320312 -5.378906 C 27.285156 -5.519531 27.246094 -5.664062 27.210938 -5.804688 Z M 11.433594 -13.820312 L 14.28125 -21.621094 L 18.09375 -13.820312 Z M 11.433594 -13.820312 "/></g></g></g><g fill="#000000" fill-opacity="1"><g transform="translate(160.87604, 254.215527)"><g><path d="M 18.023438 -25.964844 C 17.988281 -26.640625 17.914062 -27.460938 17.523438 -27.925781 C 17.0625 -28.457031 16.242188 -28.992188 15.566406 -28.957031 C 14.996094 -28.921875 14.390625 -28.175781 13.996094 -27.605469 C 13.714844 -27.210938 13.785156 -26.605469 13.75 -26.074219 C 13.535156 -23.257812 13.355469 -20.445312 13.144531 -17.523438 C 12.785156 -17.632812 12.503906 -17.703125 12.253906 -17.773438 C 7.160156 -19.554688 3.597656 -17.84375 1.921875 -12.714844 C 1.710938 -12.039062 1.53125 -11.363281 1.425781 -10.683594 C 0.710938 -6.234375 3.0625 -2.457031 7.089844 -1.566406 C 8.976562 -1.140625 10.792969 -1.460938 12.539062 -2.207031 C 12.964844 -2.386719 13.5 -2.527344 13.890625 -2.386719 C 16.347656 -1.53125 18.023438 -2.566406 18.058594 -5.199219 C 18.09375 -12.109375 18.058594 -19.054688 18.023438 -25.964844 Z M 12.324219 -8.335938 C 11.183594 -7.976562 10.007812 -7.65625 8.832031 -7.335938 C 7.871094 -7.371094 7.195312 -7.871094 7.265625 -8.726562 C 7.410156 -9.867188 7.835938 -11.007812 8.261719 -12.109375 C 8.335938 -12.359375 8.867188 -12.539062 9.191406 -12.539062 C 10.792969 -12.609375 12.785156 -10.613281 12.679688 -9.011719 C 12.679688 -8.761719 12.503906 -8.40625 12.324219 -8.335938 Z M 12.324219 -8.335938 "/></g></g></g><g fill="#000000" fill-opacity="1"><g transform="translate(180.286517, 254.215527)"><g><path d="M 6.589844 -15.207031 C 6.554688 -16.207031 6.019531 -16.988281 4.949219 -17.132812 C 3.847656 -17.273438 3.027344 -16.632812 2.847656 -15.636719 C 2.242188 -12.179688 1.636719 -8.65625 1.316406 -5.164062 C 1.140625 -3.3125 2.28125 -2.136719 3.5625 -2.03125 C 4.878906 -1.921875 5.949219 -3.027344 6.304688 -4.914062 C 6.410156 -5.628906 6.484375 -6.375 6.519531 -7.089844 C 6.554688 -8.15625 6.660156 -13.570312 6.589844 -15.207031 Z M 3.953125 -20.195312 C 5.128906 -20.160156 6.199219 -21.226562 6.234375 -22.546875 C 6.234375 -23.757812 5.308594 -24.71875 4.097656 -24.683594 C 2.886719 -24.683594 1.886719 -23.722656 1.886719 -22.476562 C 1.886719 -21.226562 2.777344 -20.230469 3.953125 -20.195312 Z M 3.953125 -20.195312 "/></g></g></g><g fill="#000000" fill-opacity="1"><g transform="translate(188.2644, 254.215527)"><g><path d="M 12.539062 -16.703125 C 11.71875 -16.8125 10.898438 -16.953125 10.078125 -17.167969 C 8.621094 -17.59375 7.230469 -17.417969 5.949219 -16.632812 C 2.992188 -14.851562 1.105469 -12.289062 0.605469 -8.832031 C 0.179688 -5.878906 1.496094 -3.5625 4.308594 -2.601562 C 5.734375 -2.101562 7.230469 -1.921875 8.691406 -1.601562 C 10.898438 -1.566406 12.714844 -2.28125 14.246094 -3.777344 C 16.097656 -5.554688 17.0625 -7.800781 17.417969 -10.328125 C 17.84375 -13.535156 15.777344 -16.242188 12.539062 -16.703125 Z M 11.503906 -9.867188 C 10.828125 -7.90625 10.152344 -7.265625 8.761719 -7.335938 C 5.984375 -7.480469 5.554688 -8.261719 6.945312 -10.722656 C 7.050781 -10.898438 7.160156 -11.078125 7.265625 -11.253906 C 8.621094 -13.25 8.90625 -13.25 10.863281 -11.894531 C 11.648438 -11.328125 11.824219 -10.757812 11.503906 -9.867188 Z M 11.503906 -9.867188 "/></g></g></g><g fill="#000000" fill-opacity="1"><g transform="translate(206.606404, 254.215527)"><g><path d="M 16.171875 -15.246094 C 16.097656 -16.847656 15.246094 -17.488281 13.605469 -17.773438 C 13.25 -17.84375 12.929688 -18.023438 12.644531 -18.199219 C 11.328125 -19.054688 9.902344 -19.269531 8.441406 -18.878906 C 5.058594 -17.914062 2.636719 -15.851562 1.601562 -12.429688 C 0.785156 -9.6875 1.746094 -6.839844 4.023438 -5.058594 C 6.269531 -3.3125 8.65625 -3.0625 11.113281 -4.59375 C 11.253906 -4.664062 11.433594 -4.703125 11.574219 -4.773438 C 11.539062 -2.101562 9.296875 1.070312 6.910156 1.886719 C 4.664062 2.671875 3.738281 4.417969 4.738281 6.019531 C 5.519531 7.265625 6.730469 7.585938 8.121094 7.445312 C 10.257812 7.195312 11.96875 6.089844 13.390625 4.488281 C 15.28125 2.28125 16.421875 -0.320312 16.492188 -3.132812 C 16.632812 -7.160156 16.382812 -11.21875 16.171875 -15.246094 Z M 8.582031 -9.367188 C 7.976562 -8.941406 7.230469 -9.582031 7.125 -10.4375 C 6.980469 -12.109375 9.652344 -14.28125 11.398438 -13.75 C 11.183594 -11.824219 10.152344 -10.4375 8.582031 -9.367188 Z M 8.582031 -9.367188 "/></g></g></g><g fill="#000000" fill-opacity="1"><g transform="translate(224.485411, 254.215527)"><g><path d="M 15.351562 -17.238281 C 13.960938 -18.664062 12.253906 -19.589844 10.292969 -19.945312 C 7.445312 -20.480469 4.84375 -19.339844 3.242188 -16.953125 C 2.03125 -15.101562 1.53125 -13.035156 1.351562 -10.863281 C 0.890625 -5.664062 4.488281 -1.316406 11.042969 -1.996094 C 11.96875 -2.066406 13.070312 -2.707031 13.75 -3.382812 C 14.996094 -4.703125 14.566406 -6.269531 12.859375 -6.804688 C 11.683594 -7.195312 10.402344 -7.230469 9.191406 -7.445312 C 8.546875 -7.585938 7.941406 -7.800781 7.300781 -8.015625 C 9.511719 -8.40625 11.648438 -8.546875 13.570312 -9.226562 C 17.238281 -10.507812 18.058594 -14.425781 15.351562 -17.238281 Z M 12.179688 -13.820312 C 10.578125 -13.640625 8.941406 -13.464844 7.160156 -13.285156 C 7.445312 -14.355469 7.90625 -15.171875 8.976562 -15.492188 C 10.1875 -15.851562 11.683594 -15.246094 12.609375 -13.996094 C 12.394531 -13.890625 12.289062 -13.820312 12.179688 -13.820312 Z M 12.179688 -13.820312 "/></g></g></g><g fill="#000000" fill-opacity="1"><g transform="translate(148.02193, 273.688791)"><g><path d="M 3.921875 0.046875 C 3.398438 0.046875 2.925781 -0.0546875 2.5 -0.265625 C 2.070312 -0.472656 1.703125 -0.753906 1.390625 -1.109375 C 1.085938 -1.460938 0.851562 -1.863281 0.6875 -2.3125 C 0.519531 -2.769531 0.4375 -3.234375 0.4375 -3.703125 C 0.4375 -4.203125 0.523438 -4.675781 0.703125 -5.125 C 0.878906 -5.582031 1.125 -5.984375 1.4375 -6.328125 C 1.75 -6.679688 2.117188 -6.957031 2.546875 -7.15625 C 2.972656 -7.363281 3.4375 -7.46875 3.9375 -7.46875 C 4.445312 -7.46875 4.914062 -7.359375 5.34375 -7.140625 C 5.769531 -6.921875 6.132812 -6.632812 6.4375 -6.28125 C 6.75 -5.925781 6.988281 -5.523438 7.15625 -5.078125 C 7.320312 -4.628906 7.40625 -4.171875 7.40625 -3.703125 C 7.40625 -3.203125 7.316406 -2.722656 7.140625 -2.265625 C 6.960938 -1.816406 6.71875 -1.421875 6.40625 -1.078125 C 6.09375 -0.734375 5.722656 -0.457031 5.296875 -0.25 C 4.867188 -0.0507812 4.410156 0.046875 3.921875 0.046875 Z M 1.171875 -3.703125 C 1.171875 -3.304688 1.234375 -2.921875 1.359375 -2.546875 C 1.492188 -2.171875 1.679688 -1.835938 1.921875 -1.546875 C 2.171875 -1.265625 2.460938 -1.035156 2.796875 -0.859375 C 3.128906 -0.691406 3.503906 -0.609375 3.921875 -0.609375 C 4.335938 -0.609375 4.71875 -0.695312 5.0625 -0.875 C 5.40625 -1.0625 5.691406 -1.300781 5.921875 -1.59375 C 6.160156 -1.882812 6.34375 -2.210938 6.46875 -2.578125 C 6.601562 -2.953125 6.671875 -3.328125 6.671875 -3.703125 C 6.671875 -4.109375 6.601562 -4.5 6.46875 -4.875 C 6.332031 -5.25 6.140625 -5.578125 5.890625 -5.859375 C 5.648438 -6.148438 5.363281 -6.378906 5.03125 -6.546875 C 4.695312 -6.722656 4.328125 -6.8125 3.921875 -6.8125 C 3.503906 -6.8125 3.125 -6.71875 2.78125 -6.53125 C 2.4375 -6.351562 2.144531 -6.117188 1.90625 -5.828125 C 1.675781 -5.535156 1.492188 -5.203125 1.359375 -4.828125 C 1.234375 -4.460938 1.171875 -4.085938 1.171875 -3.703125 Z M 1.171875 -3.703125 "/></g></g></g><g fill="#000000" fill-opacity="1"><g transform="translate(155.873557, 273.688791)"><g><path d="M 5.359375 0 L 4.65625 0 L 4.65625 -3.046875 C 4.65625 -3.691406 4.554688 -4.160156 4.359375 -4.453125 C 4.171875 -4.742188 3.878906 -4.890625 3.484375 -4.890625 C 3.273438 -4.890625 3.066406 -4.847656 2.859375 -4.765625 C 2.648438 -4.691406 2.453125 -4.585938 2.265625 -4.453125 C 2.085938 -4.316406 1.929688 -4.148438 1.796875 -3.953125 C 1.660156 -3.765625 1.5625 -3.554688 1.5 -3.328125 L 1.5 0 L 0.78125 0 L 0.78125 -5.453125 L 1.4375 -5.453125 L 1.4375 -4.21875 C 1.65625 -4.613281 1.972656 -4.929688 2.390625 -5.171875 C 2.804688 -5.421875 3.257812 -5.546875 3.75 -5.546875 C 4.039062 -5.546875 4.289062 -5.488281 4.5 -5.375 C 4.707031 -5.257812 4.875 -5.097656 5 -4.890625 C 5.125 -4.691406 5.210938 -4.445312 5.265625 -4.15625 C 5.328125 -3.863281 5.359375 -3.539062 5.359375 -3.1875 Z M 5.359375 0 "/></g></g></g><g fill="#000000" fill-opacity="1"><g transform="translate(161.968763, 273.688791)"><g><path d="M 0.8125 -7.625 L 1.53125 -7.625 L 1.53125 -1.234375 C 1.53125 -1.035156 1.582031 -0.875 1.6875 -0.75 C 1.800781 -0.632812 1.957031 -0.578125 2.15625 -0.578125 C 2.238281 -0.578125 2.332031 -0.585938 2.4375 -0.609375 C 2.539062 -0.628906 2.640625 -0.660156 2.734375 -0.703125 L 2.859375 -0.125 C 2.722656 -0.0703125 2.554688 -0.03125 2.359375 0 C 2.171875 0.0390625 2.007812 0.0625 1.875 0.0625 C 1.539062 0.0625 1.28125 -0.0234375 1.09375 -0.203125 C 0.90625 -0.390625 0.8125 -0.65625 0.8125 -1 Z M 0.8125 -7.625 "/></g></g></g><g fill="#000000" fill-opacity="1"><g transform="translate(164.812492, 273.688791)"><g><path d="M 1.09375 1.671875 C 1.15625 1.679688 1.210938 1.6875 1.265625 1.6875 C 1.316406 1.6875 1.363281 1.6875 1.40625 1.6875 C 1.53125 1.6875 1.628906 1.671875 1.703125 1.640625 C 1.773438 1.609375 1.847656 1.53125 1.921875 1.40625 C 1.992188 1.289062 2.070312 1.117188 2.15625 0.890625 C 2.25 0.671875 2.375 0.375 2.53125 0 L 0.15625 -5.453125 L 0.890625 -5.453125 L 2.90625 -0.65625 L 4.78125 -5.453125 L 5.453125 -5.453125 L 2.640625 1.578125 C 2.554688 1.773438 2.425781 1.945312 2.25 2.09375 C 2.070312 2.25 1.832031 2.328125 1.53125 2.328125 C 1.457031 2.328125 1.390625 2.328125 1.328125 2.328125 C 1.265625 2.328125 1.1875 2.316406 1.09375 2.296875 Z M 1.09375 1.671875 "/></g></g></g><g fill="#000000" fill-opacity="1"><g transform="translate(170.479048, 273.688791)"><g/></g></g><g fill="#000000" fill-opacity="1"><g transform="translate(173.145046, 273.688791)"><g><path d="M 3.109375 0.109375 C 2.710938 0.109375 2.347656 0.0351562 2.015625 -0.109375 C 1.691406 -0.265625 1.410156 -0.472656 1.171875 -0.734375 C 0.929688 -0.992188 0.742188 -1.289062 0.609375 -1.625 C 0.472656 -1.96875 0.40625 -2.328125 0.40625 -2.703125 C 0.40625 -3.085938 0.472656 -3.453125 0.609375 -3.796875 C 0.742188 -4.140625 0.929688 -4.4375 1.171875 -4.6875 C 1.410156 -4.945312 1.691406 -5.15625 2.015625 -5.3125 C 2.347656 -5.46875 2.710938 -5.546875 3.109375 -5.546875 C 3.492188 -5.546875 3.851562 -5.46875 4.1875 -5.3125 C 4.519531 -5.15625 4.804688 -4.945312 5.046875 -4.6875 C 5.285156 -4.4375 5.472656 -4.140625 5.609375 -3.796875 C 5.742188 -3.453125 5.8125 -3.085938 5.8125 -2.703125 C 5.8125 -2.328125 5.742188 -1.96875 5.609375 -1.625 C 5.484375 -1.289062 5.296875 -0.992188 5.046875 -0.734375 C 4.804688 -0.472656 4.519531 -0.265625 4.1875 -0.109375 C 3.863281 0.0351562 3.503906 0.109375 3.109375 0.109375 Z M 1.125 -2.703125 C 1.125 -2.390625 1.175781 -2.101562 1.28125 -1.84375 C 1.382812 -1.582031 1.523438 -1.351562 1.703125 -1.15625 C 1.878906 -0.957031 2.085938 -0.800781 2.328125 -0.6875 C 2.578125 -0.570312 2.835938 -0.515625 3.109375 -0.515625 C 3.378906 -0.515625 3.632812 -0.570312 3.875 -0.6875 C 4.113281 -0.8125 4.320312 -0.972656 4.5 -1.171875 C 4.6875 -1.367188 4.832031 -1.597656 4.9375 -1.859375 C 5.039062 -2.128906 5.09375 -2.414062 5.09375 -2.71875 C 5.09375 -3.019531 5.039062 -3.300781 4.9375 -3.5625 C 4.832031 -3.832031 4.6875 -4.066406 4.5 -4.265625 C 4.320312 -4.460938 4.113281 -4.617188 3.875 -4.734375 C 3.632812 -4.847656 3.378906 -4.90625 3.109375 -4.90625 C 2.835938 -4.90625 2.582031 -4.847656 2.34375 -4.734375 C 2.101562 -4.617188 1.890625 -4.460938 1.703125 -4.265625 C 1.523438 -4.066406 1.382812 -3.832031 1.28125 -3.5625 C 1.175781 -3.289062 1.125 -3.003906 1.125 -2.703125 Z M 1.125 -2.703125 "/></g></g></g><g fill="#000000" fill-opacity="1"><g transform="translate(179.365707, 273.688791)"><g><path d="M 5.359375 0 L 4.65625 0 L 4.65625 -3.046875 C 4.65625 -3.691406 4.554688 -4.160156 4.359375 -4.453125 C 4.171875 -4.742188 3.878906 -4.890625 3.484375 -4.890625 C 3.273438 -4.890625 3.066406 -4.847656 2.859375 -4.765625 C 2.648438 -4.691406 2.453125 -4.585938 2.265625 -4.453125 C 2.085938 -4.316406 1.929688 -4.148438 1.796875 -3.953125 C 1.660156 -3.765625 1.5625 -3.554688 1.5 -3.328125 L 1.5 0 L 0.78125 0 L 0.78125 -5.453125 L 1.4375 -5.453125 L 1.4375 -4.21875 C 1.65625 -4.613281 1.972656 -4.929688 2.390625 -5.171875 C 2.804688 -5.421875 3.257812 -5.546875 3.75 -5.546875 C 4.039062 -5.546875 4.289062 -5.488281 4.5 -5.375 C 4.707031 -5.257812 4.875 -5.097656 5 -4.890625 C 5.125 -4.691406 5.210938 -4.445312 5.265625 -4.15625 C 5.328125 -3.863281 5.359375 -3.539062 5.359375 -3.1875 Z M 5.359375 0 "/></g></g></g><g fill="#000000" fill-opacity="1"><g transform="translate(185.460913, 273.688791)"><g/></g></g><g fill="#000000" fill-opacity="1"><g transform="translate(188.12691, 273.688791)"><g><path d="M 3.234375 -7.421875 L 3.84375 -7.421875 L 6.9375 0 L 6.15625 0 L 5.1875 -2.328125 L 1.859375 -2.328125 L 0.90625 0 L 0.125 0 Z M 5.03125 -2.890625 L 3.53125 -6.5625 L 2.015625 -2.890625 Z M 5.03125 -2.890625 "/></g></g></g><g fill="#000000" fill-opacity="1"><g transform="translate(195.194416, 273.688791)"><g><path d="M 3.5 -4.8125 C 3.019531 -4.800781 2.601562 -4.671875 2.25 -4.421875 C 1.894531 -4.171875 1.644531 -3.828125 1.5 -3.390625 L 1.5 0 L 0.78125 0 L 0.78125 -5.453125 L 1.453125 -5.453125 L 1.453125 -4.140625 C 1.648438 -4.554688 1.921875 -4.882812 2.265625 -5.125 C 2.609375 -5.363281 2.972656 -5.484375 3.359375 -5.484375 C 3.421875 -5.484375 3.46875 -5.476562 3.5 -5.46875 Z M 3.5 -4.8125 "/></g></g></g><g fill="#000000" fill-opacity="1"><g transform="translate(198.864088, 273.688791)"><g><path d="M 3.453125 0.109375 C 3.015625 0.109375 2.613281 0 2.25 -0.21875 C 1.894531 -0.4375 1.617188 -0.71875 1.421875 -1.0625 L 1.421875 0 L 0.78125 0 L 0.78125 -7.625 L 1.5 -7.625 L 1.5 -4.3125 C 1.738281 -4.675781 2.03125 -4.972656 2.375 -5.203125 C 2.71875 -5.429688 3.113281 -5.546875 3.5625 -5.546875 C 3.945312 -5.546875 4.289062 -5.460938 4.59375 -5.296875 C 4.894531 -5.140625 5.148438 -4.925781 5.359375 -4.65625 C 5.578125 -4.382812 5.742188 -4.078125 5.859375 -3.734375 C 5.972656 -3.398438 6.03125 -3.054688 6.03125 -2.703125 C 6.03125 -2.316406 5.960938 -1.953125 5.828125 -1.609375 C 5.703125 -1.273438 5.519531 -0.976562 5.28125 -0.71875 C 5.050781 -0.46875 4.78125 -0.265625 4.46875 -0.109375 C 4.15625 0.0351562 3.816406 0.109375 3.453125 0.109375 Z M 3.28125 -0.515625 C 3.582031 -0.515625 3.851562 -0.578125 4.09375 -0.703125 C 4.34375 -0.828125 4.554688 -0.988281 4.734375 -1.1875 C 4.910156 -1.394531 5.050781 -1.628906 5.15625 -1.890625 C 5.257812 -2.160156 5.3125 -2.429688 5.3125 -2.703125 C 5.3125 -2.992188 5.265625 -3.269531 5.171875 -3.53125 C 5.078125 -3.800781 4.941406 -4.035156 4.765625 -4.234375 C 4.597656 -4.441406 4.394531 -4.601562 4.15625 -4.71875 C 3.914062 -4.84375 3.648438 -4.90625 3.359375 -4.90625 C 3.148438 -4.90625 2.953125 -4.867188 2.765625 -4.796875 C 2.578125 -4.722656 2.398438 -4.625 2.234375 -4.5 C 2.078125 -4.375 1.9375 -4.226562 1.8125 -4.0625 C 1.6875 -3.90625 1.582031 -3.734375 1.5 -3.546875 L 1.5 -1.859375 C 1.519531 -1.671875 1.59375 -1.492188 1.71875 -1.328125 C 1.84375 -1.171875 1.988281 -1.03125 2.15625 -0.90625 C 2.332031 -0.789062 2.519531 -0.695312 2.71875 -0.625 C 2.914062 -0.550781 3.101562 -0.515625 3.28125 -0.515625 Z M 3.28125 -0.515625 "/></g></g></g><g fill="#000000" fill-opacity="1"><g transform="translate(205.314757, 273.688791)"><g><path d="M 0.78125 0 L 0.78125 -5.453125 L 1.5 -5.453125 L 1.5 0 Z M 0.78125 -6.578125 L 0.78125 -7.625 L 1.5 -7.625 L 1.5 -6.578125 Z M 0.78125 -6.578125 "/></g></g></g><g fill="#000000" fill-opacity="1"><g transform="translate(207.593925, 273.688791)"><g><path d="M 3.390625 -0.265625 C 3.347656 -0.242188 3.285156 -0.210938 3.203125 -0.171875 C 3.128906 -0.140625 3.039062 -0.101562 2.9375 -0.0625 C 2.832031 -0.03125 2.710938 -0.00390625 2.578125 0.015625 C 2.453125 0.046875 2.3125 0.0625 2.15625 0.0625 C 2.007812 0.0625 1.863281 0.0390625 1.71875 0 C 1.582031 -0.0390625 1.460938 -0.101562 1.359375 -0.1875 C 1.253906 -0.28125 1.171875 -0.390625 1.109375 -0.515625 C 1.046875 -0.648438 1.015625 -0.804688 1.015625 -0.984375 L 1.015625 -4.875 L 0.265625 -4.875 L 0.265625 -5.453125 L 1.015625 -5.453125 L 1.015625 -7.28125 L 1.71875 -7.28125 L 1.71875 -5.453125 L 2.984375 -5.453125 L 2.984375 -4.875 L 1.71875 -4.875 L 1.71875 -1.1875 C 1.738281 -0.976562 1.8125 -0.828125 1.9375 -0.734375 C 2.0625 -0.640625 2.210938 -0.59375 2.390625 -0.59375 C 2.585938 -0.59375 2.757812 -0.625 2.90625 -0.6875 C 3.0625 -0.757812 3.160156 -0.8125 3.203125 -0.84375 Z M 3.390625 -0.265625 "/></g></g></g><g fill="#000000" fill-opacity="1"><g transform="translate(211.096313, 273.688791)"><g><path d="M 3.5 -4.8125 C 3.019531 -4.800781 2.601562 -4.671875 2.25 -4.421875 C 1.894531 -4.171875 1.644531 -3.828125 1.5 -3.390625 L 1.5 0 L 0.78125 0 L 0.78125 -5.453125 L 1.453125 -5.453125 L 1.453125 -4.140625 C 1.648438 -4.554688 1.921875 -4.882812 2.265625 -5.125 C 2.609375 -5.363281 2.972656 -5.484375 3.359375 -5.484375 C 3.421875 -5.484375 3.46875 -5.476562 3.5 -5.46875 Z M 3.5 -4.8125 "/></g></g></g><g fill="#000000" fill-opacity="1"><g transform="translate(214.765984, 273.688791)"><g><path d="M 2.484375 0.109375 C 1.890625 0.109375 1.445312 -0.0859375 1.15625 -0.484375 C 0.875 -0.878906 0.734375 -1.46875 0.734375 -2.25 L 0.734375 -5.453125 L 1.4375 -5.453125 L 1.4375 -2.375 C 1.4375 -1.132812 1.859375 -0.515625 2.703125 -0.515625 C 2.910156 -0.515625 3.113281 -0.550781 3.3125 -0.625 C 3.519531 -0.695312 3.707031 -0.796875 3.875 -0.921875 C 4.050781 -1.054688 4.207031 -1.210938 4.34375 -1.390625 C 4.476562 -1.578125 4.585938 -1.785156 4.671875 -2.015625 L 4.671875 -5.453125 L 5.390625 -5.453125 L 5.390625 -0.921875 C 5.390625 -0.722656 5.472656 -0.625 5.640625 -0.625 L 5.640625 0 C 5.554688 0.0078125 5.488281 0.015625 5.4375 0.015625 C 5.382812 0.015625 5.347656 0.015625 5.328125 0.015625 C 5.148438 0.015625 5.007812 -0.0390625 4.90625 -0.15625 C 4.800781 -0.269531 4.75 -0.421875 4.75 -0.609375 L 4.75 -1.234375 C 4.519531 -0.804688 4.195312 -0.472656 3.78125 -0.234375 C 3.375 -0.00390625 2.941406 0.109375 2.484375 0.109375 Z M 2.484375 0.109375 "/></g></g></g><g fill="#000000" fill-opacity="1"><g transform="translate(220.97619, 273.688791)"><g><path d="M 8.890625 0 L 8.171875 0 L 8.171875 -3.046875 C 8.171875 -3.679688 8.066406 -4.144531 7.859375 -4.4375 C 7.660156 -4.738281 7.363281 -4.890625 6.96875 -4.890625 C 6.757812 -4.890625 6.5625 -4.847656 6.375 -4.765625 C 6.195312 -4.691406 6.03125 -4.585938 5.875 -4.453125 C 5.71875 -4.316406 5.578125 -4.148438 5.453125 -3.953125 C 5.335938 -3.765625 5.25 -3.554688 5.1875 -3.328125 L 5.1875 0 L 4.46875 0 L 4.46875 -3.046875 C 4.46875 -3.691406 4.367188 -4.160156 4.171875 -4.453125 C 3.984375 -4.742188 3.6875 -4.890625 3.28125 -4.890625 C 2.875 -4.890625 2.507812 -4.742188 2.1875 -4.453125 C 1.863281 -4.171875 1.632812 -3.796875 1.5 -3.328125 L 1.5 0 L 0.78125 0 L 0.78125 -5.453125 L 1.4375 -5.453125 L 1.4375 -4.21875 C 1.65625 -4.632812 1.945312 -4.957031 2.3125 -5.1875 C 2.675781 -5.425781 3.078125 -5.546875 3.515625 -5.546875 C 3.972656 -5.546875 4.335938 -5.414062 4.609375 -5.15625 C 4.890625 -4.894531 5.0625 -4.554688 5.125 -4.140625 C 5.632812 -5.078125 6.332031 -5.546875 7.21875 -5.546875 C 7.53125 -5.546875 7.789062 -5.488281 8 -5.375 C 8.21875 -5.257812 8.390625 -5.097656 8.515625 -4.890625 C 8.640625 -4.691406 8.734375 -4.445312 8.796875 -4.15625 C 8.859375 -3.863281 8.890625 -3.539062 8.890625 -3.1875 Z M 8.890625 0 "/></g></g></g></svg>