<svg xmlns="http://www.w3.org/2000/svg" xmlns:xlink="http://www.w3.org/1999/xlink" width="500" zoomAndPan="magnify" viewBox="0 0 375 374.999991" height="500" preserveAspectRatio="xMidYMid meet" version="1.0"><defs><g/><clipPath id="c11a0d79d4"><path d="M 163 199 L 203 199 L 203 240.273438 L 163 240.273438 Z M 163 199 " clip-rule="nonzero"/></clipPath><clipPath id="ccda3b21cd"><path d="M 195 170 L 262.5 170 L 262.5 201 L 195 201 Z M 195 170 " clip-rule="nonzero"/></clipPath><clipPath id="dc03b46721"><path d="M 136 98.523438 L 187 98.523438 L 187 150 L 136 150 Z M 136 98.523438 " clip-rule="nonzero"/></clipPath><clipPath id="12fe1c5258"><path d="M 112.5 98.523438 L 161 98.523438 L 161 123 L 112.5 123 Z M 112.5 98.523438 " clip-rule="nonzero"/></clipPath></defs><rect x="-37.5" width="450" fill="#ffffff" y="-37.499999" height="449.999989" fill-opacity="1"/><rect x="-37.5" width="450" fill="#ffffff" y="-37.499999" height="449.999989" fill-opacity="1"/><rect x="-37.5" width="450" fill="#ff5757" y="-37.499999" height="449.999989" fill-opacity="1"/><g clip-path="url(#c11a0d79d4)"><path fill="#3ee8a9" d="M 199.773438 199.195312 L 184.125 214.175781 L 184.683594 218.757812 L 163.257812 240.222656 L 202.964844 240.222656 L 202.964844 200.433594 Z M 199.773438 199.195312 " fill-opacity="1" fill-rule="nonzero"/></g><g clip-path="url(#ccda3b21cd)"><path fill="#3d61e9" d="M 195.675781 200.433594 L 232.679688 170.675781 L 262.394531 200.433594 Z M 195.675781 200.433594 " fill-opacity="1" fill-rule="nonzero"/></g><g clip-path="url(#dc03b46721)"><path fill="#3d61e9" d="M 186.960938 124.867188 L 162.796875 149.074219 L 136.652344 128.242188 L 136.652344 117.761719 L 160.636719 98.5 Z M 186.960938 124.867188 " fill-opacity="1" fill-rule="nonzero"/></g><g clip-path="url(#12fe1c5258)"><path fill="#ffe74b" d="M 160.625 98.542969 L 136.652344 122.5625 L 112.675781 98.542969 Z M 160.625 98.542969 " fill-opacity="1" fill-rule="nonzero"/></g><path fill="#c1ff72" d="M 160.722656 146.832031 L 160.800781 146.753906 L 136.652344 122.5625 L 136.652344 170.949219 L 148.726562 171.363281 L 167.113281 154.449219 Z M 160.722656 146.832031 " fill-opacity="1" fill-rule="nonzero"/><path fill="#ffe74b" d="M 184.804688 122.710938 L 232.679688 170.675781 L 184.804688 218.628906 L 165.820312 174.289062 Z M 184.804688 122.710938 " fill-opacity="1" fill-rule="nonzero"/><path fill="#f5d6d4" d="M 184.78125 219.167969 L 136.652344 170.949219 L 184.78125 122.730469 Z M 184.78125 219.167969 " fill-opacity="1" fill-rule="nonzero"/><g fill="#ffffff" fill-opacity="1"><g transform="translate(105.117459, 268.179518)"><g><path d="M 2.480469 0 L 7.476562 0 L 7.476562 -23.601562 L 2.480469 -23.601562 Z M 2.480469 0 "/></g></g></g><g fill="#ffffff" fill-opacity="1"><g transform="translate(115.072216, 268.179518)"><g><path d="M 2.316406 -18.964844 L 7.441406 -18.964844 L 7.441406 -23.375 L 2.316406 -23.375 Z M 2.382812 0 L 7.394531 0 L 7.394531 -16.746094 L 2.382812 -16.746094 Z M 2.382812 0 "/></g></g></g><g fill="#ffffff" fill-opacity="1"><g transform="translate(124.847461, 268.179518)"><g><path d="M 12.617188 -3.722656 L 7.605469 -3.820312 C 6.234375 -3.902344 5.453125 -4.144531 5.453125 -4.847656 C 5.453125 -5.925781 9.125 -6.070312 10.984375 -6.070312 L 11.015625 -6.070312 C 16.042969 -6.070312 19.046875 -8.226562 19.046875 -11.734375 C 19.046875 -13.757812 18.117188 -15.308594 16.257812 -16.257812 C 18.019531 -16.535156 19.195312 -17.675781 19.195312 -19.082031 C 19.195312 -19.898438 18.867188 -20.648438 18.738281 -20.859375 L 15 -20.941406 C 15.164062 -20.613281 15.488281 -19.585938 15.488281 -18.902344 C 15.488281 -17.871094 14.738281 -16.976562 13.710938 -17.054688 C 12.863281 -17.203125 11.914062 -17.285156 10.871094 -17.285156 C 5.695312 -17.285156 3.085938 -15.066406 3.085938 -11.734375 C 3.085938 -9.875 3.984375 -8.160156 5.957031 -7.117188 C 3.769531 -6.9375 1.257812 -6.105469 1.257812 -3.902344 C 1.257812 -2.449219 2.039062 -1.304688 4.699219 -0.816406 C 2.9375 -0.261719 1.730469 1.042969 1.730469 2.496094 C 1.730469 4.617188 4.308594 6.347656 10.28125 6.347656 C 15.605469 6.347656 19.945312 4.636719 19.945312 0.816406 C 19.945312 -2.089844 17.855469 -3.527344 12.617188 -3.722656 Z M 11.015625 -14.414062 C 13.15625 -14.414062 14.25 -13.253906 14.25 -11.703125 C 14.25 -10.136719 13.15625 -8.945312 11.015625 -8.945312 C 8.878906 -8.945312 7.867188 -10.136719 7.867188 -11.703125 C 7.867188 -13.269531 8.910156 -14.414062 11.015625 -14.414062 Z M 10.414062 3.363281 C 7.101562 3.363281 5.875 2.710938 5.875 1.582031 C 5.875 0.734375 6.59375 -0.113281 7.394531 -0.570312 L 11.492188 -0.457031 C 14.035156 -0.375 14.769531 0.246094 14.769531 1.304688 C 14.769531 2.511719 13.660156 3.363281 10.414062 3.363281 Z M 10.414062 3.363281 "/></g></g></g><g fill="#ffffff" fill-opacity="1"><g transform="translate(145.523981, 268.179518)"><g><path d="M 2.480469 0 L 7.476562 0 L 7.476562 -7.898438 C 7.476562 -11.132812 9.546875 -13.5625 12.011719 -13.5625 C 14.949219 -13.5625 15.554688 -11.261719 15.554688 -8.75 L 15.554688 0 L 20.566406 0 L 20.566406 -9.304688 C 20.566406 -13.53125 19.046875 -17.285156 13.972656 -17.285156 C 10.953125 -17.285156 8.601562 -15.863281 7.476562 -13.433594 L 7.476562 -23.601562 L 2.480469 -23.601562 Z M 2.480469 0 "/></g></g></g><g fill="#ffffff" fill-opacity="1"><g transform="translate(168.305687, 268.179518)"><g><path d="M 9.644531 0.523438 C 14.378906 0.523438 15.964844 -2.824219 16.257812 -5.597656 L 12.910156 -6.5625 C 12.730469 -4.652344 11.996094 -3.148438 10.414062 -3.148438 C 8.992188 -3.148438 8.097656 -3.835938 8.097656 -6.1875 L 8.097656 -14.101562 L 13.726562 -14.101562 L 13.726562 -16.746094 L 8.097656 -16.746094 L 8.097656 -21.984375 L 4.0625 -21.984375 L 4.0625 -18.933594 C 4.0625 -17.511719 3.574219 -16.746094 2.105469 -16.746094 L 0.0664062 -16.746094 L 0.0664062 -14.101562 L 3.132812 -14.101562 L 3.132812 -6.464844 C 3.132812 -1.941406 5.125 0.523438 9.644531 0.523438 Z M 9.644531 0.523438 "/></g></g></g><g fill="#ffc0df" fill-opacity="1"><g transform="translate(184.957302, 268.179518)"><g><path d="M 2.382812 5.890625 L 7.394531 5.890625 L 7.394531 -2.660156 C 8.242188 -0.945312 10.445312 0.539062 13.644531 0.539062 C 18.363281 0.539062 21.429688 -2.824219 21.429688 -8.375 C 21.429688 -13.695312 18.394531 -17.269531 13.660156 -17.269531 C 10.460938 -17.269531 7.769531 -15.800781 6.5625 -13.320312 L 5.875 -16.746094 L 2.382812 -16.746094 Z M 11.867188 -3.070312 C 9.433594 -3.070312 7.378906 -4.652344 7.378906 -8.390625 C 7.378906 -11.800781 9.171875 -13.660156 11.851562 -13.660156 C 14.542969 -13.660156 16.289062 -11.867188 16.289062 -8.355469 C 16.289062 -4.667969 14.460938 -3.070312 11.867188 -3.070312 Z M 11.867188 -3.070312 "/></g></g></g><g fill="#ffc0df" fill-opacity="1"><g transform="translate(207.331026, 268.179518)"><g><path d="M 1.894531 0 L 6.839844 0 L 6.839844 -5.304688 L 1.894531 -5.304688 Z M 1.894531 0 "/></g></g></g><g fill="#ffc0df" fill-opacity="1"><g transform="translate(216.078157, 268.179518)"><g><path d="M 2.316406 -18.964844 L 7.441406 -18.964844 L 7.441406 -23.375 L 2.316406 -23.375 Z M 2.382812 0 L 7.394531 0 L 7.394531 -16.746094 L 2.382812 -16.746094 Z M 2.382812 0 "/></g></g></g><g fill="#ffc0df" fill-opacity="1"><g transform="translate(225.853402, 268.179518)"><g><path d="M 2.382812 0 L 7.378906 0 L 7.378906 -7.800781 C 7.378906 -11.394531 9.613281 -13.5625 11.882812 -13.5625 C 14.789062 -13.5625 15.457031 -11.359375 15.457031 -8.667969 L 15.457031 0 L 20.453125 0 L 20.453125 -9.207031 C 20.453125 -13.613281 18.902344 -17.285156 13.792969 -17.285156 C 10.789062 -17.285156 7.933594 -15.683594 6.691406 -12.566406 L 5.859375 -16.746094 L 2.382812 -16.746094 Z M 2.382812 0 "/></g></g></g><g fill="#ffc0df" fill-opacity="1"><g transform="translate(248.537193, 268.179518)"><g><path d="M 2.480469 0 L 7.476562 0 L 7.476562 -4.652344 L 11.3125 -8.160156 L 15.667969 0 L 21.21875 0 L 14.902344 -10.96875 L 20.777344 -16.746094 L 14.722656 -16.746094 L 7.476562 -9.367188 L 7.476562 -23.601562 L 2.480469 -23.601562 Z M 2.480469 0 "/></g></g></g></svg>