<svg xmlns="http://www.w3.org/2000/svg" xmlns:xlink="http://www.w3.org/1999/xlink" width="500" zoomAndPan="magnify" viewBox="0 0 375 374.999991" height="500" preserveAspectRatio="xMidYMid meet" version="1.0"><defs><g/><clipPath id="d713317351"><path d="M 104.121094 90.023438 L 252.519531 90.023438 L 252.519531 240.019531 L 104.121094 240.019531 Z M 104.121094 90.023438 " clip-rule="nonzero"/></clipPath></defs><rect x="-37.5" width="450" fill="#ffffff" y="-37.499999" height="449.999989" fill-opacity="1"/><rect x="-37.5" width="450" fill="#ffffff" y="-37.499999" height="449.999989" fill-opacity="1"/><rect x="-37.5" width="450" fill="#191919" y="-37.499999" height="449.999989" fill-opacity="1"/><g clip-path="url(#d713317351)"><path fill="#000000" d="M 145.285156 229.808594 C 144.855469 231.023438 146.203125 232.234375 144.964844 233.636719 C 143.617188 233.882812 142.523438 234.386719 141.457031 234.914062 C 141.925781 234.972656 141.75 235.683594 141.773438 236.191406 C 145.144531 237.34375 148.507812 235.890625 151.667969 236.511719 C 151.699219 233.351562 152.328125 230.789062 152.941406 228.214844 C 149.730469 228.140625 146.375 226.722656 145.285156 229.808594 Z M 204.636719 226.9375 C 202.609375 229.683594 206.566406 232.128906 205.914062 234.59375 C 208.917969 234.445312 211.171875 235.273438 214.527344 234.914062 C 214.976562 234.300781 215.371094 233.628906 215.484375 232.679688 C 215.019531 231.230469 213.007812 231.328125 211.972656 230.445312 C 213.15625 224.199219 206.957031 228.550781 204.636719 226.9375 Z M 205.914062 216.726562 C 205.535156 218.929688 207.621094 223.714844 206.230469 225.980469 C 207.519531 225.675781 208.773438 225.328125 210.0625 225.023438 C 209.703125 221.898438 210.621094 218.355469 210.0625 216.085938 C 209.335938 216.960938 207.46875 216.6875 205.914062 216.726562 Z M 148.15625 226.300781 C 149.484375 226.351562 150.820312 226.410156 151.347656 225.660156 C 150.476562 222.082031 150.328125 218.480469 150.390625 214.8125 C 148.765625 214.96875 148.609375 215.113281 146.878906 214.8125 C 145.574219 218.898438 147.160156 222.238281 148.15625 226.300781 Z M 233.355469 163.757812 C 237.023438 161.886719 238.652344 160.449219 237.820312 156.097656 C 237.320312 153.488281 233.703125 144.578125 233.035156 143.015625 C 227.128906 145.53125 221.738281 150.203125 215.484375 151.3125 C 215.5 149.582031 218.113281 148.65625 216.441406 147.164062 C 214.277344 146.160156 212.242188 148.03125 210.0625 148.441406 C 203.675781 149.640625 196.640625 148.664062 189.636719 149.078125 C 177.636719 149.792969 168.808594 151.785156 158.046875 150.355469 C 152.492188 149.617188 147.265625 146.597656 142.09375 148.761719 C 141.308594 149.859375 142.480469 151.203125 142.09375 152.90625 C 136.691406 156.378906 129.449219 152.960938 125.183594 149.398438 C 120.464844 153.191406 117.074219 158.308594 114.972656 164.714844 C 119.804688 170.304688 130.199219 170.335938 136.667969 174.289062 C 138.140625 181.464844 136.488281 190.710938 137.308594 199.496094 C 137.667969 203.375 139.585938 210.839844 143.050781 212.578125 C 146.554688 214.332031 150.261719 213.042969 154.21875 212.898438 C 160.171875 212.675781 167.03125 214.054688 171.132812 214.171875 C 175.777344 214.308594 180.375 213.695312 184.851562 213.855469 C 193.597656 214.167969 202.785156 217.089844 210.0625 214.8125 C 214.734375 210.027344 219.472656 204.917969 220.589844 196.941406 C 221.8125 188.230469 219.980469 178.480469 221.867188 169.820312 C 226.15625 167.941406 229.308594 165.820312 233.355469 163.757812 Z M 119.121094 145.570312 C 116.753906 144.503906 114.679688 141.539062 111.460938 142.378906 C 110.730469 145.074219 116.070312 144.574219 113.695312 146.84375 C 112.429688 146.410156 111.773438 145.363281 109.867188 145.570312 C 109.320312 146.085938 109.074219 146.902344 109.226562 148.121094 C 109.949219 149.207031 111.765625 149.203125 113.058594 149.71875 C 113.28125 150.699219 113.28125 150.332031 113.058594 151.3125 C 111.152344 150.582031 108.363281 150.613281 107.953125 152.90625 C 108.792969 154.738281 110.636719 153.609375 113.058594 153.867188 C 114.398438 154.757812 115.265625 156.125 116.886719 156.738281 C 119.0625 154.128906 120.90625 151.183594 123.269531 148.761719 C 121.75 147.621094 122.777344 143.929688 121.992188 142.058594 C 121.582031 142.042969 121.550781 141.652344 121.035156 141.742188 C 119.992188 142.613281 120.640625 145.175781 119.121094 145.570312 Z M 238.777344 152.269531 C 241.980469 150.457031 247.125 153.648438 247.394531 148.761719 C 246.167969 148.101562 244.78125 149.316406 244.523438 147.484375 C 245.683594 146.199219 248.902344 146.972656 248.667969 144.292969 C 247.792969 143.34375 245.394531 145.574219 244.839844 143.972656 C 245.5625 142.355469 247.554688 142.007812 248.03125 140.144531 C 244.855469 139.949219 243.929688 142 241.648438 142.699219 C 241.648438 142.277344 241.089844 142.40625 241.011719 142.058594 C 241.320312 141.21875 241.628906 139.324219 241.011719 138.550781 C 237.640625 140.746094 236.039062 148.074219 238.777344 152.269531 Z M 156.773438 103.128906 C 162.15625 108.230469 172.640625 100.984375 166.34375 95.472656 C 162.214844 97.085938 158.695312 99.308594 156.773438 103.128906 Z M 205.914062 106.960938 C 200.933594 93.902344 185.125 90.351562 168.898438 94.515625 C 173.449219 102.261719 163.332031 109.96875 155.816406 104.726562 C 152.613281 109.394531 150.875 115.53125 148.796875 121.320312 C 140.980469 117.648438 132.484375 114.65625 124.542969 111.105469 C 125.625 119.601562 128.4375 124.820312 135.074219 127.382812 C 139.542969 129.105469 145.226562 128.8125 146.242188 133.445312 C 147.242188 134.359375 149.601562 132.585938 150.390625 134.082031 C 150.082031 135.40625 149.214844 135.46875 148.476562 135.675781 C 150.558594 138.363281 146.269531 141.917969 146.878906 146.207031 C 159.867188 151.292969 176.679688 148.21875 189.636719 147.484375 C 197.90625 147.015625 206.570312 148.640625 212.933594 145.25 C 211.820312 141.785156 212.339844 136.695312 211.019531 133.445312 C 213.335938 130.867188 219.609375 132.25 220.589844 128.339844 C 220.558594 123.945312 223.996094 123.125 226.015625 121 C 228.828125 118.03125 230.144531 114.320312 232.078125 110.789062 C 225.441406 112.398438 216.175781 118.289062 209.421875 117.488281 C 207.5 113.804688 207.269531 110.523438 205.914062 106.960938 Z M 211.335938 114.617188 C 219.148438 113.65625 227.1875 106.691406 235.589844 108.238281 C 235.042969 115.089844 229.257812 121.207031 224.421875 125.785156 C 223.910156 132.082031 219.25 134.230469 214.527344 136.316406 C 215.03125 138.683594 215.144531 141.441406 215.484375 143.972656 C 216.808594 144.5 218.910156 144.640625 219.632812 146.527344 C 226.742188 146.5 229.0625 137.695312 235.90625 140.464844 C 236.605469 136.484375 242.796875 133.207031 244.523438 138.230469 C 246.484375 137.375 247.71875 137.503906 249.945312 137.273438 C 250.082031 139.375 252.773438 142.359375 252.5 144.929688 C 252.371094 146.109375 250.539062 146.976562 250.265625 148.441406 C 250.089844 149.371094 250.769531 150.558594 250.585938 151.3125 C 249.585938 155.445312 245.417969 156.167969 240.695312 155.140625 C 243.585938 163.25 233.300781 168.871094 225.695312 171.414062 C 223.246094 186.949219 225.464844 206.839844 213.25 216.085938 C 212.863281 219.777344 212.589844 223.300781 214.847656 225.023438 C 213.832031 230.527344 219.003906 229.097656 219.632812 232.359375 C 221.019531 239.566406 207.25 238.695312 203.039062 236.511719 C 203.183594 233.496094 201.875 231.929688 200.488281 230.445312 C 200.417969 227.1875 201.734375 225.3125 203.359375 223.746094 C 203.535156 221.019531 201.847656 220.152344 200.808594 218.640625 C 190.113281 216.933594 181.359375 215.910156 171.132812 216.726562 C 168.339844 216.949219 165.5625 217.757812 162.515625 217.363281 C 159.761719 217.007812 157.125 215.035156 153.902344 215.769531 C 153.199219 218.628906 152.804688 221.289062 153.902344 224.382812 C 154.871094 227.121094 159.554688 229.160156 154.859375 232.042969 C 154.675781 235.578125 155.296875 238.304688 152.304688 240.019531 C 148.925781 239.753906 145.726562 239.421875 141.457031 239.382812 C 138.378906 238.097656 136.628906 231.960938 142.09375 232.042969 C 140.660156 229.214844 143.9375 228.246094 144.328125 226.300781 C 145.09375 222.484375 141.941406 218.589844 141.457031 214.8125 C 133.867188 211.078125 133.222656 196.671875 133.796875 185.457031 C 134.03125 180.875 134.882812 177.179688 131.882812 174.925781 C 124.222656 173.226562 117.71875 170.371094 112.101562 166.628906 C 111.035156 163.121094 113.082031 160.53125 114.652344 158.652344 C 112.554688 156.347656 105.667969 159.527344 104.121094 155.460938 C 104.191406 152.871094 104.742188 150.765625 106.035156 149.398438 C 105.28125 147.589844 104.230469 146.183594 104.761719 144.292969 C 105.09375 143.105469 106.140625 143.253906 107.632812 142.058594 C 108.660156 141.234375 109.542969 139.738281 110.503906 139.507812 C 112.871094 138.933594 115.074219 140.3125 116.566406 141.101562 C 118.320312 140.621094 119.597656 139.667969 121.035156 138.867188 C 122.648438 139.488281 123.796875 140.570312 125.183594 141.421875 C 125.816406 142.667969 124.894531 143.761719 125.183594 145.570312 C 129.03125 148.101562 131.710938 151.804688 137.945312 151.949219 C 137.984375 148.609375 139.773438 145.902344 143.691406 145.570312 C 144.257812 142.523438 145.09375 139.742188 146.242188 137.273438 C 144.109375 136.320312 142.738281 134.609375 142.09375 132.167969 C 130.042969 129.648438 120.230469 122.132812 121.992188 106.960938 C 126.554688 106.21875 129.859375 110.207031 133.476562 111.746094 C 134.804688 112.308594 136.332031 112.148438 137.625 112.703125 C 140.789062 114.058594 143.148438 116.761719 146.5625 117.488281 C 148.355469 113.398438 150.464844 109.210938 151.984375 104.085938 C 157.566406 95.113281 166.515625 90.8125 180.386719 90.046875 C 183.78125 89.859375 186.847656 90.75 190.597656 91.640625 C 194.253906 92.511719 197.605469 92.621094 199.851562 94.195312 C 206.558594 98.914062 209.511719 106.019531 211.335938 114.617188 " fill-opacity="1" fill-rule="evenodd"/></g><path fill="#aaea9d" d="M 205.59375 136.316406 C 206.082031 138.324219 204.539062 138.796875 205.273438 140.144531 C 209.339844 139.203125 206.558594 132.128906 202.082031 133.125 C 201.039062 135.367188 205.203125 134.511719 205.59375 136.316406 Z M 151.984375 142.378906 C 149.585938 137.984375 154.382812 135.285156 157.730469 133.761719 C 153.410156 131.203125 146.152344 140.660156 151.984375 142.378906 Z M 183.257812 135.039062 C 184.101562 135.683594 186.1875 135.089844 187.085938 135.675781 C 187.570312 136.878906 187.898438 137.742188 187.40625 139.1875 C 183.097656 141.976562 176.832031 141.203125 170.175781 140.78125 C 170.066406 139.71875 169.25 139.367188 169.535156 137.910156 C 170.519531 136.210938 173.277344 136.535156 174.324219 135.675781 C 173.449219 132.402344 174.917969 126.785156 171.769531 125.785156 C 171.453125 128.128906 172.851562 131.511719 172.726562 134.71875 C 169.738281 135.136719 168.074219 136.871094 167.300781 139.507812 C 162.929688 140.738281 158.410156 136.976562 155.175781 138.230469 C 156.660156 140.734375 163.484375 140.972656 168.261719 141.101562 C 169.058594 141.46875 169.328125 142.375 170.492188 142.378906 C 176.769531 143.015625 185.78125 143.4375 189.320312 139.507812 C 190.726562 140.195312 192.378906 139.097656 194.425781 138.867188 C 197.632812 138.507812 202.035156 139.351562 203.359375 136.953125 C 199.914062 135.96875 193.09375 138.46875 189 137.910156 C 189.371094 136.582031 188.972656 136.335938 188.679688 135.039062 C 187.570312 134.339844 186.132812 133.96875 184.851562 133.445312 C 185.441406 131.136719 184.640625 126.867188 184.214844 125.464844 C 184.160156 125.09375 183.710938 125.121094 183.257812 125.148438 C 182.90625 128.125 183.722656 132.449219 183.257812 135.039062 Z M 147.835938 126.425781 C 146.660156 124.40625 142.65625 123.523438 140.5 123.550781 C 142.171875 125.105469 145.445312 126.644531 147.835938 126.425781 Z M 214.527344 126.425781 C 216.746094 125.773438 217.46875 123.488281 219.316406 122.273438 C 220.851562 121.265625 222.875 121.398438 224.101562 119.722656 C 219.636719 119.230469 214.871094 122.78125 214.527344 126.425781 Z M 151.984375 129.617188 C 158.207031 131.480469 162.546875 125.390625 159.644531 120.042969 C 152.042969 116.035156 145.441406 125.851562 151.984375 129.617188 Z M 198.253906 118.445312 C 194.796875 123.382812 197.21875 129.875 202.082031 130.253906 C 212.160156 131.035156 210.886719 116.378906 203.039062 116.851562 C 201.609375 117.546875 199.78125 117.847656 198.253906 118.445312 Z M 165.070312 110.789062 C 165.457031 114.066406 172.738281 113.886719 171.449219 108.238281 C 169.382812 106.113281 164.789062 108.4375 165.070312 110.789062 Z M 172.726562 101.214844 C 173.277344 103.207031 176.453125 104.164062 178.46875 102.8125 C 179.179688 102.03125 179.171875 100.53125 179.109375 98.980469 C 177.191406 97.265625 173.167969 97.5 172.726562 101.214844 Z M 209.421875 117.488281 C 216.175781 118.289062 225.441406 112.398438 232.078125 110.789062 C 230.144531 114.320312 228.828125 118.03125 226.015625 121 C 223.996094 123.125 220.558594 123.945312 220.589844 128.339844 C 219.609375 132.25 213.335938 130.867188 211.019531 133.445312 C 212.339844 136.695312 211.820312 141.785156 212.933594 145.25 C 206.570312 148.640625 197.90625 147.015625 189.636719 147.484375 C 176.679688 148.21875 159.867188 151.292969 146.878906 146.207031 C 146.269531 141.917969 150.558594 138.363281 148.476562 135.675781 C 149.214844 135.46875 150.082031 135.40625 150.390625 134.082031 C 149.601562 132.585938 147.242188 134.359375 146.242188 133.445312 C 145.226562 128.8125 139.542969 129.105469 135.074219 127.382812 C 128.4375 124.820312 125.625 119.601562 124.542969 111.105469 C 132.484375 114.65625 140.980469 117.648438 148.796875 121.320312 C 150.875 115.53125 152.613281 109.394531 155.816406 104.726562 C 163.332031 109.96875 173.449219 102.261719 168.898438 94.515625 C 185.125 90.351562 200.933594 93.902344 205.914062 106.960938 C 207.269531 110.523438 207.5 113.804688 209.421875 117.488281 " fill-opacity="1" fill-rule="evenodd"/><path fill="#d1e89e" d="M 166.34375 95.472656 C 172.640625 100.984375 162.15625 108.230469 156.773438 103.128906 C 158.695312 99.308594 162.214844 97.085938 166.34375 95.472656 " fill-opacity="1" fill-rule="evenodd"/><path fill="#000000" d="M 174.324219 100.894531 C 174.929688 102.492188 178.058594 102.652344 177.832031 100.257812 C 176.34375 99.695312 174.6875 98.65625 174.324219 100.894531 Z M 179.109375 98.980469 C 179.171875 100.53125 179.179688 102.03125 178.46875 102.8125 C 176.453125 104.164062 173.277344 103.207031 172.726562 101.214844 C 173.167969 97.5 177.191406 97.265625 179.109375 98.980469 " fill-opacity="1" fill-rule="evenodd"/><path fill="#d1e89e" d="M 177.832031 100.257812 C 178.058594 102.652344 174.929688 102.492188 174.324219 100.894531 C 174.6875 98.65625 176.34375 99.695312 177.832031 100.257812 " fill-opacity="1" fill-rule="evenodd"/><path fill="#000000" d="M 166.984375 110.148438 C 167.15625 112.398438 170.878906 111.523438 169.855469 108.875 C 168.859375 108.492188 167.601562 109.25 166.984375 110.148438 Z M 171.449219 108.238281 C 172.738281 113.886719 165.457031 114.066406 165.070312 110.789062 C 164.789062 108.4375 169.382812 106.113281 171.449219 108.238281 " fill-opacity="1" fill-rule="evenodd"/><path fill="#d1e89e" d="M 169.855469 108.875 C 170.878906 111.523438 167.15625 112.398438 166.984375 110.148438 C 167.601562 109.25 168.859375 108.492188 169.855469 108.875 " fill-opacity="1" fill-rule="evenodd"/><path fill="#000000" d="M 202.082031 128.65625 C 209.316406 129.511719 209.679688 118.496094 203.679688 118.128906 C 202.410156 118.050781 201.277344 119.8125 199.53125 119.40625 C 196.546875 122.558594 197.933594 128.167969 202.082031 128.65625 Z M 203.039062 116.851562 C 210.886719 116.378906 212.160156 131.035156 202.082031 130.253906 C 197.21875 129.875 194.796875 123.382812 198.253906 118.445312 C 199.78125 117.847656 201.609375 117.546875 203.039062 116.851562 " fill-opacity="1" fill-rule="evenodd"/><path fill="#fffef8" d="M 203.039062 124.191406 C 204.074219 124.375 204.523438 123.972656 205.273438 123.871094 C 205.738281 120.710938 201.804688 122.339844 203.039062 124.191406 Z M 199.53125 119.40625 C 201.277344 119.8125 202.410156 118.050781 203.679688 118.128906 C 209.679688 118.496094 209.316406 129.511719 202.082031 128.65625 C 197.933594 128.167969 196.546875 122.558594 199.53125 119.40625 " fill-opacity="1" fill-rule="evenodd"/><path fill="#000000" d="M 150.710938 125.464844 C 151.265625 130.976562 161.773438 128.042969 158.6875 121.320312 C 154.304688 119.707031 150.316406 121.574219 150.710938 125.464844 Z M 159.644531 120.042969 C 162.546875 125.390625 158.207031 131.480469 151.984375 129.617188 C 145.441406 125.851562 152.042969 116.035156 159.644531 120.042969 " fill-opacity="1" fill-rule="evenodd"/><path fill="#000000" d="M 224.101562 119.722656 C 222.875 121.398438 220.851562 121.265625 219.316406 122.273438 C 217.46875 123.488281 216.746094 125.773438 214.527344 126.425781 C 214.871094 122.78125 219.636719 119.230469 224.101562 119.722656 " fill-opacity="1" fill-rule="evenodd"/><path fill="#fffef8" d="M 153.902344 123.871094 C 153.714844 125.226562 154.761719 125.351562 155.496094 125.785156 C 155.910156 125.132812 157.042969 125.207031 156.773438 123.871094 C 156.523438 123.800781 156.402344 123.605469 156.453125 123.234375 C 155.46875 123.3125 154.648438 123.554688 153.902344 123.871094 Z M 158.6875 121.320312 C 161.773438 128.042969 151.265625 130.976562 150.710938 125.464844 C 150.316406 121.574219 154.304688 119.707031 158.6875 121.320312 " fill-opacity="1" fill-rule="evenodd"/><path fill="#000000" d="M 205.273438 123.871094 C 204.523438 123.972656 204.074219 124.375 203.039062 124.191406 C 201.804688 122.339844 205.738281 120.710938 205.273438 123.871094 " fill-opacity="1" fill-rule="evenodd"/><path fill="#000000" d="M 140.5 123.550781 C 142.65625 123.523438 146.660156 124.40625 147.835938 126.425781 C 145.445312 126.644531 142.171875 125.105469 140.5 123.550781 " fill-opacity="1" fill-rule="evenodd"/><path fill="#000000" d="M 156.453125 123.234375 C 156.402344 123.605469 156.523438 123.800781 156.773438 123.871094 C 157.042969 125.207031 155.910156 125.132812 155.496094 125.785156 C 154.761719 125.351562 153.714844 125.226562 153.902344 123.871094 C 154.648438 123.554688 155.46875 123.3125 156.453125 123.234375 " fill-opacity="1" fill-rule="evenodd"/><path fill="#000000" d="M 183.257812 125.148438 C 183.710938 125.121094 184.160156 125.09375 184.214844 125.464844 C 184.640625 126.867188 185.441406 131.136719 184.851562 133.445312 C 186.132812 133.96875 187.570312 134.339844 188.679688 135.039062 C 188.972656 136.335938 189.371094 136.582031 189 137.910156 C 193.09375 138.46875 199.914062 135.96875 203.359375 136.953125 C 202.035156 139.351562 197.632812 138.507812 194.425781 138.867188 C 192.378906 139.097656 190.726562 140.195312 189.320312 139.507812 C 185.78125 143.4375 176.769531 143.015625 170.492188 142.378906 C 169.328125 142.375 169.058594 141.46875 168.261719 141.101562 C 163.484375 140.972656 156.660156 140.734375 155.175781 138.230469 C 158.410156 136.976562 162.929688 140.738281 167.300781 139.507812 C 168.074219 136.871094 169.738281 135.136719 172.726562 134.71875 C 172.851562 131.511719 171.453125 128.128906 171.769531 125.785156 C 174.917969 126.785156 173.449219 132.402344 174.324219 135.675781 C 173.277344 136.535156 170.519531 136.210938 169.535156 137.910156 C 169.25 139.367188 170.066406 139.71875 170.175781 140.78125 C 176.832031 141.203125 183.097656 141.976562 187.40625 139.1875 C 187.898438 137.742188 187.570312 136.878906 187.085938 135.675781 C 186.1875 135.089844 184.101562 135.683594 183.257812 135.039062 C 183.722656 132.449219 182.90625 128.125 183.257812 125.148438 " fill-opacity="1" fill-rule="evenodd"/><path fill="#000000" d="M 157.730469 133.761719 C 154.382812 135.285156 149.585938 137.984375 151.984375 142.378906 C 146.152344 140.660156 153.410156 131.203125 157.730469 133.761719 " fill-opacity="1" fill-rule="evenodd"/><path fill="#000000" d="M 202.082031 133.125 C 206.558594 132.128906 209.339844 139.203125 205.273438 140.144531 C 204.539062 138.796875 206.082031 138.324219 205.59375 136.316406 C 205.203125 134.511719 201.039062 135.367188 202.082031 133.125 " fill-opacity="1" fill-rule="evenodd"/><path fill="#aaea9d" d="M 241.011719 138.550781 C 241.628906 139.324219 241.320312 141.21875 241.011719 142.058594 C 241.089844 142.40625 241.648438 142.277344 241.648438 142.699219 C 243.929688 142 244.855469 139.949219 248.03125 140.144531 C 247.554688 142.007812 245.5625 142.355469 244.839844 143.972656 C 245.394531 145.574219 247.792969 143.34375 248.667969 144.292969 C 248.902344 146.972656 245.683594 146.199219 244.523438 147.484375 C 244.78125 149.316406 246.167969 148.101562 247.394531 148.761719 C 247.125 153.648438 241.980469 150.457031 238.777344 152.269531 C 236.039062 148.074219 237.640625 140.746094 241.011719 138.550781 " fill-opacity="1" fill-rule="evenodd"/><path fill="#aaea9d" d="M 121.035156 141.742188 C 121.550781 141.652344 121.582031 142.042969 121.992188 142.058594 C 122.777344 143.929688 121.75 147.621094 123.269531 148.761719 C 120.90625 151.183594 119.0625 154.128906 116.886719 156.738281 C 115.265625 156.125 114.398438 154.757812 113.058594 153.867188 C 110.636719 153.609375 108.792969 154.738281 107.953125 152.90625 C 108.363281 150.613281 111.152344 150.582031 113.058594 151.3125 C 113.28125 150.332031 113.28125 150.699219 113.058594 149.71875 C 111.765625 149.203125 109.949219 149.207031 109.226562 148.121094 C 109.074219 146.902344 109.320312 146.085938 109.867188 145.570312 C 111.773438 145.363281 112.429688 146.410156 113.695312 146.84375 C 116.070312 144.574219 110.730469 145.074219 111.460938 142.378906 C 114.679688 141.539062 116.753906 144.503906 119.121094 145.570312 C 120.640625 145.175781 119.992188 142.613281 121.035156 141.742188 " fill-opacity="1" fill-rule="evenodd"/><path fill="#d8cc91" d="M 206.871094 203.003906 C 207.527344 203.964844 209.097656 203.472656 208.785156 201.730469 C 207.59375 201.601562 206.910156 201.984375 206.871094 203.003906 Z M 203.996094 199.496094 C 205.207031 200.308594 206.5 198.9375 206.871094 197.898438 C 205.875 197.300781 203.863281 197.953125 203.996094 199.496094 Z M 158.367188 198.539062 C 157.640625 197.351562 157.136719 195.941406 155.496094 195.667969 C 154.65625 197.21875 156.9375 199.203125 158.367188 198.539062 Z M 162.195312 195.347656 C 162.527344 194.507812 162.578125 193.390625 162.515625 192.15625 C 162.109375 192.136719 162.074219 191.746094 161.558594 191.835938 C 160.660156 192.761719 160.757812 195.046875 162.195312 195.347656 Z M 197.296875 179.710938 C 198.777344 179.808594 199.503906 179.152344 199.53125 177.796875 C 197.960938 177.609375 197.074219 178.105469 197.296875 179.710938 Z M 195.0625 174.925781 C 196.527344 174.6875 197.152344 173.609375 197.617188 172.371094 C 197.550781 172.015625 197.261719 171.875 196.976562 171.734375 C 196.230469 172.582031 193.859375 173.148438 195.0625 174.925781 Z M 144.328125 159.609375 C 145.519531 159.636719 145.238281 159.96875 146.242188 159.609375 C 146.804688 158.53125 145.8125 158.1875 145.605469 157.054688 C 143.789062 156.925781 143.976562 158.304688 144.328125 159.609375 Z M 146.878906 157.054688 C 147.34375 157.523438 148.96875 157.523438 149.433594 157.054688 C 149.410156 156.121094 148.703125 155.871094 148.15625 155.460938 C 147.835938 156.097656 146.746094 155.964844 146.878906 157.054688 Z M 221.867188 169.820312 C 219.980469 178.480469 221.8125 188.230469 220.589844 196.941406 C 219.472656 204.917969 214.734375 210.027344 210.0625 214.8125 C 202.785156 217.089844 193.597656 214.167969 184.851562 213.855469 C 180.375 213.695312 175.777344 214.308594 171.132812 214.171875 C 167.03125 214.054688 160.171875 212.675781 154.21875 212.898438 C 150.261719 213.042969 146.554688 214.332031 143.050781 212.578125 C 139.585938 210.839844 137.667969 203.375 137.308594 199.496094 C 136.488281 190.710938 138.140625 181.464844 136.667969 174.289062 C 130.199219 170.335938 119.804688 170.304688 114.972656 164.714844 C 117.074219 158.308594 120.464844 153.191406 125.183594 149.398438 C 129.449219 152.960938 136.691406 156.378906 142.09375 152.90625 C 142.480469 151.203125 141.308594 149.859375 142.09375 148.761719 C 147.265625 146.597656 152.492188 149.617188 158.046875 150.355469 C 168.808594 151.785156 177.636719 149.792969 189.636719 149.078125 C 196.640625 148.664062 203.675781 149.640625 210.0625 148.441406 C 212.242188 148.03125 214.277344 146.160156 216.441406 147.164062 C 218.113281 148.65625 215.5 149.582031 215.484375 151.3125 C 221.738281 150.203125 227.128906 145.53125 233.035156 143.015625 C 233.703125 144.578125 237.320312 153.488281 237.820312 156.097656 C 238.652344 160.449219 237.023438 161.886719 233.355469 163.757812 C 229.308594 165.820312 226.15625 167.941406 221.867188 169.820312 " fill-opacity="1" fill-rule="evenodd"/><path fill="#000000" d="M 148.15625 155.460938 C 148.703125 155.871094 149.410156 156.121094 149.433594 157.054688 C 148.96875 157.523438 147.34375 157.523438 146.878906 157.054688 C 146.746094 155.964844 147.835938 156.097656 148.15625 155.460938 " fill-opacity="1" fill-rule="evenodd"/><path fill="#000000" d="M 145.605469 157.054688 C 145.8125 158.1875 146.804688 158.53125 146.242188 159.609375 C 145.238281 159.96875 145.519531 159.636719 144.328125 159.609375 C 143.976562 158.304688 143.789062 156.925781 145.605469 157.054688 " fill-opacity="1" fill-rule="evenodd"/><path fill="#000000" d="M 196.976562 171.734375 C 197.261719 171.875 197.550781 172.015625 197.617188 172.371094 C 197.152344 173.609375 196.527344 174.6875 195.0625 174.925781 C 193.859375 173.148438 196.230469 172.582031 196.976562 171.734375 " fill-opacity="1" fill-rule="evenodd"/><path fill="#000000" d="M 199.53125 177.796875 C 199.503906 179.152344 198.777344 179.808594 197.296875 179.710938 C 197.074219 178.105469 197.960938 177.609375 199.53125 177.796875 " fill-opacity="1" fill-rule="evenodd"/><path fill="#000000" d="M 161.558594 191.835938 C 162.074219 191.746094 162.109375 192.136719 162.515625 192.15625 C 162.578125 193.390625 162.527344 194.507812 162.195312 195.347656 C 160.757812 195.046875 160.660156 192.761719 161.558594 191.835938 " fill-opacity="1" fill-rule="evenodd"/><path fill="#000000" d="M 155.496094 195.667969 C 157.136719 195.941406 157.640625 197.351562 158.367188 198.539062 C 156.9375 199.203125 154.65625 197.21875 155.496094 195.667969 " fill-opacity="1" fill-rule="evenodd"/><path fill="#000000" d="M 206.871094 197.898438 C 206.5 198.9375 205.207031 200.308594 203.996094 199.496094 C 203.863281 197.953125 205.875 197.300781 206.871094 197.898438 " fill-opacity="1" fill-rule="evenodd"/><path fill="#000000" d="M 208.785156 201.730469 C 209.097656 203.472656 207.527344 203.964844 206.871094 203.003906 C 206.910156 201.984375 207.59375 201.601562 208.785156 201.730469 " fill-opacity="1" fill-rule="evenodd"/><path fill="#aaea9d" d="M 146.878906 214.8125 C 148.609375 215.113281 148.765625 214.96875 150.390625 214.8125 C 150.328125 218.480469 150.476562 222.082031 151.347656 225.660156 C 150.820312 226.410156 149.484375 226.351562 148.15625 226.300781 C 147.160156 222.238281 145.574219 218.898438 146.878906 214.8125 " fill-opacity="1" fill-rule="evenodd"/><path fill="#aaea9d" d="M 210.0625 216.085938 C 210.621094 218.355469 209.703125 221.898438 210.0625 225.023438 C 208.773438 225.328125 207.519531 225.675781 206.230469 225.980469 C 207.621094 223.714844 205.535156 218.929688 205.914062 216.726562 C 207.46875 216.6875 209.335938 216.960938 210.0625 216.085938 " fill-opacity="1" fill-rule="evenodd"/><path fill="#bcad71" d="M 211.972656 230.445312 C 213.007812 231.328125 215.019531 231.230469 215.484375 232.679688 C 215.371094 233.628906 214.976562 234.300781 214.527344 234.914062 C 211.171875 235.273438 208.917969 234.445312 205.914062 234.59375 C 206.566406 232.128906 202.609375 229.683594 204.636719 226.9375 C 206.957031 228.550781 213.15625 224.199219 211.972656 230.445312 " fill-opacity="1" fill-rule="evenodd"/><path fill="#bcad71" d="M 152.941406 228.214844 C 152.328125 230.789062 151.699219 233.351562 151.667969 236.511719 C 148.507812 235.890625 145.144531 237.34375 141.773438 236.191406 C 141.75 235.683594 141.925781 234.972656 141.457031 234.914062 C 142.523438 234.386719 143.617188 233.882812 144.964844 233.636719 C 146.203125 232.234375 144.855469 231.023438 145.285156 229.808594 C 146.375 226.722656 149.730469 228.140625 152.941406 228.214844 " fill-opacity="1" fill-rule="evenodd"/><g fill="#f5d6d4" fill-opacity="1"><g transform="translate(63.820587, 268.179518)"><g><path d="M 24.335938 -12.242188 L 13.433594 -12.242188 L 13.433594 -8.78125 L 19.292969 -8.78125 C 19.046875 -5.746094 16.582031 -3.640625 13.203125 -3.640625 C 8.960938 -3.640625 6.429688 -6.347656 6.429688 -11.734375 C 6.429688 -16.761719 8.945312 -19.652344 13.074219 -19.652344 C 16.273438 -19.652344 18.378906 -17.871094 18.867188 -14.59375 L 19.0625 -14.609375 L 23.847656 -15.605469 C 22.769531 -20.941406 18.882812 -24.007812 13.140625 -24.007812 C 5.042969 -24.007812 1.011719 -18.445312 1.011719 -11.507812 C 1.011719 -4.457031 5.238281 0.636719 12.40625 0.636719 C 17.269531 0.636719 20.304688 -2.691406 20.8125 -5.371094 C 20.84375 -3.835938 20.890625 -1.761719 21.136719 0 L 24.824219 0 C 24.238281 -3.265625 24.335938 -7.898438 24.335938 -12.242188 Z M 24.335938 -12.242188 "/></g></g></g><g fill="#f5d6d4" fill-opacity="1"><g transform="translate(89.507124, 268.179518)"><g><path d="M 10.460938 0.523438 C 16.042969 0.523438 20.09375 -2.726562 20.09375 -8.40625 C 20.09375 -14.019531 16.011719 -17.285156 10.460938 -17.285156 C 4.914062 -17.285156 0.816406 -14.035156 0.816406 -8.375 C 0.816406 -2.726562 4.878906 0.523438 10.460938 0.523438 Z M 10.460938 -3.085938 C 7.785156 -3.085938 5.972656 -4.765625 5.972656 -8.375 C 5.972656 -11.996094 7.785156 -13.679688 10.460938 -13.679688 C 13.121094 -13.679688 14.949219 -12.011719 14.949219 -8.390625 C 14.949219 -4.75 13.105469 -3.085938 10.460938 -3.085938 Z M 10.460938 -3.085938 "/></g></g></g><g fill="#f5d6d4" fill-opacity="1"><g transform="translate(110.412114, 268.179518)"><g><path d="M 13.792969 0.523438 C 18.507812 0.523438 21.5625 -3.050781 21.5625 -8.390625 C 21.5625 -13.921875 18.507812 -17.285156 13.777344 -17.285156 C 10.578125 -17.285156 8.375 -15.800781 7.523438 -14.085938 L 7.523438 -23.601562 L 2.511719 -23.601562 L 2.511719 0 L 6.300781 0 L 7.019531 -3.25 C 8.078125 -1.042969 10.59375 0.523438 13.792969 0.523438 Z M 11.980469 -3.085938 C 9.289062 -3.085938 7.507812 -4.945312 7.507812 -8.355469 C 7.507812 -12.09375 9.566406 -13.679688 11.996094 -13.679688 C 14.59375 -13.679688 16.421875 -12.078125 16.421875 -8.390625 C 16.421875 -4.878906 14.65625 -3.085938 11.980469 -3.085938 Z M 11.980469 -3.085938 "/></g></g></g><g fill="#f5d6d4" fill-opacity="1"><g transform="translate(132.785839, 268.179518)"><g><path d="M 2.480469 0 L 7.476562 0 L 7.476562 -23.601562 L 2.480469 -23.601562 Z M 2.480469 0 "/></g></g></g><g fill="#f5d6d4" fill-opacity="1"><g transform="translate(142.740596, 268.179518)"><g><path d="M 2.316406 -18.964844 L 7.441406 -18.964844 L 7.441406 -23.375 L 2.316406 -23.375 Z M 2.382812 0 L 7.394531 0 L 7.394531 -16.746094 L 2.382812 -16.746094 Z M 2.382812 0 "/></g></g></g><g fill="#f5d6d4" fill-opacity="1"><g transform="translate(152.515841, 268.179518)"><g><path d="M 2.382812 0 L 7.378906 0 L 7.378906 -7.800781 C 7.378906 -11.394531 9.613281 -13.5625 11.882812 -13.5625 C 14.789062 -13.5625 15.457031 -11.359375 15.457031 -8.667969 L 15.457031 0 L 20.453125 0 L 20.453125 -9.207031 C 20.453125 -13.613281 18.902344 -17.285156 13.792969 -17.285156 C 10.789062 -17.285156 7.933594 -15.683594 6.691406 -12.566406 L 5.859375 -16.746094 L 2.382812 -16.746094 Z M 2.382812 0 "/></g></g></g><g fill="#f5d6d4" fill-opacity="1"><g transform="translate(175.199631, 268.179518)"><g><path d="M 1.894531 0 L 6.839844 0 L 6.839844 -5.304688 L 1.894531 -5.304688 Z M 1.894531 0 "/></g></g></g><g fill="#3ee8a9" fill-opacity="1"><g transform="translate(183.937767, 268.179518)"><g><path d="M 13.074219 0.636719 C 19.082031 0.636719 22.996094 -2.59375 24.207031 -7.019531 L 19.488281 -8.390625 C 18.589844 -5.253906 16.191406 -3.785156 13.300781 -3.785156 C 9.074219 -3.785156 6.511719 -6.464844 6.511719 -11.539062 C 6.511719 -16.84375 8.945312 -19.585938 12.925781 -19.585938 C 15.945312 -19.585938 18.738281 -17.855469 19.082031 -12.960938 L 19.226562 -12.863281 L 24.089844 -13.824219 C 23.847656 -20.402344 19.0625 -24.007812 12.945312 -24.007812 C 5.433594 -24.007812 1.011719 -19.390625 1.011719 -11.652344 C 1.011719 -3.964844 5.484375 0.636719 13.074219 0.636719 Z M 13.074219 0.636719 "/></g></g></g><g fill="#3ee8a9" fill-opacity="1"><g transform="translate(208.987852, 268.179518)"><g><path d="M 7.164062 0.523438 C 10.707031 0.523438 13.90625 -0.996094 14.753906 -5.09375 C 14.625 -4.128906 14.542969 -3.378906 14.542969 -2.839844 C 14.558594 -0.359375 15.816406 0.523438 18.050781 0.523438 C 19.375 0.523438 20.679688 0 21.070312 -0.226562 L 21.070312 -2.675781 C 20.84375 -2.578125 20.320312 -2.414062 19.796875 -2.414062 C 19.046875 -2.414062 18.753906 -2.90625 18.753906 -3.917969 L 18.753906 -9.777344 C 18.753906 -14.871094 16.109375 -17.285156 10.496094 -17.285156 C 5.53125 -17.285156 2.90625 -15.097656 2.105469 -11.832031 L 6.496094 -10.9375 C 6.871094 -12.945312 8.292969 -13.957031 10.152344 -13.957031 C 12.910156 -13.957031 13.757812 -12.585938 13.757812 -10.625 L 13.757812 -9.808594 C 6.824219 -9.84375 1.078125 -8.699219 1.078125 -4.324219 C 1.078125 -1.386719 3.28125 0.523438 7.164062 0.523438 Z M 8.503906 -2.480469 C 6.902344 -2.480469 6.167969 -3.410156 6.167969 -4.519531 C 6.167969 -6.804688 9.402344 -7.164062 13.777344 -7.296875 L 13.777344 -7.132812 C 13.777344 -5.355469 10.886719 -2.480469 8.503906 -2.480469 Z M 8.503906 -2.480469 "/></g></g></g><g fill="#3ee8a9" fill-opacity="1"><g transform="translate(230.692486, 268.179518)"><g><path d="M 2.382812 5.890625 L 7.394531 5.890625 L 7.394531 -2.660156 C 8.242188 -0.945312 10.445312 0.539062 13.644531 0.539062 C 18.363281 0.539062 21.429688 -2.824219 21.429688 -8.375 C 21.429688 -13.695312 18.394531 -17.269531 13.660156 -17.269531 C 10.460938 -17.269531 7.769531 -15.800781 6.5625 -13.320312 L 5.875 -16.746094 L 2.382812 -16.746094 Z M 11.867188 -3.070312 C 9.433594 -3.070312 7.378906 -4.652344 7.378906 -8.390625 C 7.378906 -11.800781 9.171875 -13.660156 11.851562 -13.660156 C 14.542969 -13.660156 16.289062 -11.867188 16.289062 -8.355469 C 16.289062 -4.667969 14.460938 -3.070312 11.867188 -3.070312 Z M 11.867188 -3.070312 "/></g></g></g><g fill="#3ee8a9" fill-opacity="1"><g transform="translate(253.066211, 268.179518)"><g><path d="M 2.316406 -18.964844 L 7.441406 -18.964844 L 7.441406 -23.375 L 2.316406 -23.375 Z M 2.382812 0 L 7.394531 0 L 7.394531 -16.746094 L 2.382812 -16.746094 Z M 2.382812 0 "/></g></g></g><g fill="#3ee8a9" fill-opacity="1"><g transform="translate(262.841456, 268.179518)"><g><path d="M 9.644531 0.523438 C 14.378906 0.523438 15.964844 -2.824219 16.257812 -5.597656 L 12.910156 -6.5625 C 12.730469 -4.652344 11.996094 -3.148438 10.414062 -3.148438 C 8.992188 -3.148438 8.097656 -3.835938 8.097656 -6.1875 L 8.097656 -14.101562 L 13.726562 -14.101562 L 13.726562 -16.746094 L 8.097656 -16.746094 L 8.097656 -21.984375 L 4.0625 -21.984375 L 4.0625 -18.933594 C 4.0625 -17.511719 3.574219 -16.746094 2.105469 -16.746094 L 0.0664062 -16.746094 L 0.0664062 -14.101562 L 3.132812 -14.101562 L 3.132812 -6.464844 C 3.132812 -1.941406 5.125 0.523438 9.644531 0.523438 Z M 9.644531 0.523438 "/></g></g></g><g fill="#3ee8a9" fill-opacity="1"><g transform="translate(279.503435, 268.179518)"><g><path d="M 7.164062 0.523438 C 10.707031 0.523438 13.90625 -0.996094 14.753906 -5.09375 C 14.625 -4.128906 14.542969 -3.378906 14.542969 -2.839844 C 14.558594 -0.359375 15.816406 0.523438 18.050781 0.523438 C 19.375 0.523438 20.679688 0 21.070312 -0.226562 L 21.070312 -2.675781 C 20.84375 -2.578125 20.320312 -2.414062 19.796875 -2.414062 C 19.046875 -2.414062 18.753906 -2.90625 18.753906 -3.917969 L 18.753906 -9.777344 C 18.753906 -14.871094 16.109375 -17.285156 10.496094 -17.285156 C 5.53125 -17.285156 2.90625 -15.097656 2.105469 -11.832031 L 6.496094 -10.9375 C 6.871094 -12.945312 8.292969 -13.957031 10.152344 -13.957031 C 12.910156 -13.957031 13.757812 -12.585938 13.757812 -10.625 L 13.757812 -9.808594 C 6.824219 -9.84375 1.078125 -8.699219 1.078125 -4.324219 C 1.078125 -1.386719 3.28125 0.523438 7.164062 0.523438 Z M 8.503906 -2.480469 C 6.902344 -2.480469 6.167969 -3.410156 6.167969 -4.519531 C 6.167969 -6.804688 9.402344 -7.164062 13.777344 -7.296875 L 13.777344 -7.132812 C 13.777344 -5.355469 10.886719 -2.480469 8.503906 -2.480469 Z M 8.503906 -2.480469 "/></g></g></g><g fill="#3ee8a9" fill-opacity="1"><g transform="translate(301.208069, 268.179518)"><g><path d="M 2.480469 0 L 7.476562 0 L 7.476562 -23.601562 L 2.480469 -23.601562 Z M 2.480469 0 "/></g></g></g></svg>