<svg xmlns="http://www.w3.org/2000/svg" xmlns:xlink="http://www.w3.org/1999/xlink" width="1366" zoomAndPan="magnify" viewBox="0 0 1024.5 576" height="768" preserveAspectRatio="xMidYMid meet" version="1.0"><defs><g/><clipPath id="fdba381ca6"><path d="M 0 0.140625 L 1024 0.140625 L 1024 575.859375 L 0 575.859375 Z M 0 0.140625 " clip-rule="nonzero"/></clipPath></defs><g clip-path="url(#fdba381ca6)"><path fill="#ffffff" d="M 0 0.140625 L 1024.5 0.140625 L 1024.5 583.640625 L 0 583.640625 Z M 0 0.140625 " fill-opacity="1" fill-rule="nonzero"/><path fill="#ffffff" d="M 0 0.140625 L 1024.5 0.140625 L 1024.5 576.140625 L 0 576.140625 Z M 0 0.140625 " fill-opacity="1" fill-rule="nonzero"/><path fill="#eedeff" d="M 0 0.140625 L 1024.5 0.140625 L 1024.5 576.140625 L 0 576.140625 Z M 0 0.140625 " fill-opacity="1" fill-rule="nonzero"/></g><path fill="#e60000" d="M 344.730469 400.976562 C 345.402344 386.554688 349.507812 347.25 338.667969 348.277344 C 321.765625 349.828125 304.886719 351.214844 287.867188 350.832031 C 281.46875 350.710938 230.40625 346.078125 230.523438 354.390625 C 230.714844 368.980469 229.902344 383.519531 230.191406 398.0625 C 252.035156 398.613281 273.828125 397.394531 295.722656 397.679688 C 312.121094 397.894531 328.425781 399.617188 344.730469 400.976562 Z M 476.320312 438.300781 C 494.773438 420.675781 487.0625 401.359375 474.050781 383.855469 C 463.953125 373.492188 430.652344 370.792969 417.972656 379.175781 C 397.46875 392.761719 397.730469 429.726562 419.144531 442.167969 C 436.953125 452.507812 460.492188 453.390625 476.320312 438.300781 Z M 552.117188 302.523438 C 552.164062 300.828125 552.117188 299.132812 552.164062 297.484375 C 551.949219 297.484375 551.804688 297.628906 551.613281 297.628906 C 489.257812 301.878906 425.589844 298.511719 363.160156 298.75 C 320.550781 298.894531 277.960938 299.0625 235.371094 299.347656 C 217.132812 299.46875 198.367188 298.511719 180.082031 299.824219 C 180.152344 302.140625 180.367188 304.457031 180.628906 306.726562 C 182.800781 306.847656 185 306.988281 187.242188 307.035156 C 190.917969 307.0625 194.5 307.15625 197.984375 307.203125 C 205.027344 307.324219 211.734375 307.394531 218.109375 307.492188 C 230.90625 307.609375 242.460938 307.753906 252.894531 307.824219 C 273.710938 308.113281 289.992188 308.328125 302.382812 308.492188 C 327.160156 309.042969 336.589844 309.808594 336.589844 310.691406 C 336.589844 311.574219 327.210938 312.386719 302.382812 313.007812 C 289.992188 313.316406 273.710938 313.554688 252.894531 313.675781 C 242.460938 313.675781 230.882812 313.675781 218.0625 313.675781 C 211.664062 313.652344 204.933594 313.675781 197.914062 313.53125 C 194.355469 313.484375 190.75 313.390625 187.074219 313.339844 C 185.308594 313.316406 183.496094 313.222656 181.585938 313.148438 C 182.609375 318.667969 184.042969 324.230469 185.859375 330.128906 C 265.570312 329.03125 290.277344 330.054688 290.277344 331.777344 C 290.277344 333.472656 266 335.238281 187.910156 336.40625 C 188.4375 337.984375 188.914062 339.488281 189.460938 341.136719 C 195.882812 359.640625 200.398438 380.320312 210.902344 397.011719 C 214.769531 397.347656 218.683594 397.609375 222.621094 397.777344 C 222.191406 381.109375 222.859375 364.324219 223.003906 347.632812 C 223.003906 345.960938 224.125 344.429688 225.773438 343.953125 C 242.9375 339.488281 262.824219 342.6875 280.417969 343.117188 C 292.59375 343.378906 304.648438 342.734375 316.777344 342.519531 C 323.746094 342.449219 331.746094 339.824219 338.667969 340.683594 C 348.144531 341.804688 351.273438 344.933594 352.65625 354.578125 C 354.902344 369.980469 351.871094 385.886719 352.15625 401.574219 C 360.796875 402.195312 369.441406 402.527344 378.128906 402.503906 C 380.328125 385.289062 378.25 371.296875 396.800781 363.273438 C 412.316406 356.609375 435.425781 357.972656 451.660156 359.140625 C 463.570312 360.023438 485.796875 358.6875 495.847656 367.019531 C 505.277344 374.925781 504.488281 386.265625 503.773438 397.464844 C 519.410156 397.515625 535 397.441406 550.636719 397.394531 C 550.804688 382.710938 550.96875 368.046875 551.234375 353.363281 C 474.050781 352.144531 450.296875 350.378906 450.296875 348.65625 C 450.347656 346.914062 474.125 345.863281 551.304688 347.035156 C 551.398438 342.066406 551.496094 337.101562 551.613281 332.15625 C 549.417969 332.109375 547.339844 332.039062 545.40625 331.992188 C 541.777344 332.039062 538.507812 332.109375 535.597656 332.15625 C 529.652344 332.253906 524.996094 332.324219 521.414062 332.15625 C 514.253906 331.777344 511.554688 331.058594 511.554688 330.175781 C 511.554688 329.339844 514.253906 328.457031 521.199219 327.691406 C 524.757812 327.308594 529.339844 326.714844 535.285156 326.285156 C 538.292969 326.164062 541.613281 325.949219 545.3125 325.78125 C 547.316406 325.757812 549.441406 325.78125 551.6875 325.828125 C 551.78125 321.867188 551.804688 317.902344 551.902344 313.9375 C 526.191406 314.703125 504.679688 315.324219 486.941406 315.847656 C 468.417969 316.183594 454 316.351562 443.015625 316.351562 C 420.957031 316.351562 412.53125 315.800781 412.484375 314.917969 C 412.484375 314.035156 420.792969 313.007812 442.800781 311.882812 C 453.808594 311.289062 468.273438 310.691406 486.777344 309.972656 C 504.5625 309.351562 526.140625 308.589844 552.019531 307.65625 C 552.066406 305.9375 552.066406 304.242188 552.117188 302.523438 Z M 579.425781 279.410156 C 574.675781 279.480469 569.851562 279.457031 565.101562 279.410156 C 565.101562 281.4375 565.125 283.445312 565.175781 285.472656 C 569.828125 285.042969 574.507812 285.617188 579.140625 285.234375 C 579.164062 283.277344 579.308594 281.34375 579.425781 279.410156 Z M 648.5625 416.832031 C 648.5625 413.917969 648.5625 411.890625 648.5625 407.6875 C 648.347656 407.6875 648.109375 407.6875 647.894531 407.6875 C 620.105469 407.6875 592.367188 409.023438 564.601562 409.144531 C 564.554688 411.339844 564.410156 414.683594 564.242188 417.167969 C 592.339844 417.09375 620.441406 416.878906 648.5625 416.832031 Z M 652.335938 189.578125 C 653.027344 175.796875 648.777344 162.902344 630.992188 163.953125 C 622.351562 164.457031 613.492188 165.769531 604.804688 165.21875 C 590.933594 164.359375 566.796875 158.007812 564.003906 177.898438 C 560.496094 203.042969 563.242188 228.691406 564.386719 253.90625 C 564.671875 259.828125 564.839844 265.820312 564.984375 271.816406 C 571.09375 271.863281 577.160156 272.03125 583.222656 271.769531 C 584.703125 271.695312 585.707031 272.414062 586.253906 273.34375 C 586.96875 274.179688 587.449219 275.230469 587.234375 276.566406 C 586.636719 280.53125 586.683594 284.542969 586.683594 288.554688 C 586.683594 290.105469 585.539062 291.921875 583.890625 292.230469 C 577.707031 293.355469 571.382812 292.066406 565.222656 293.019531 C 565.269531 327.8125 563.742188 362.675781 563.289062 397.394531 C 591.910156 397.277344 620.535156 397.0625 649.160156 396.847656 C 650.425781 349.78125 649.636719 302.808594 649.875 255.746094 C 649.945312 233.730469 651.140625 211.59375 652.335938 189.578125 Z M 815.648438 315.96875 C 815.863281 310.476562 816.007812 304.960938 816.054688 299.445312 C 765.085938 306.488281 713.734375 301.28125 662.480469 300.828125 C 662.480469 305.222656 662.480469 309.640625 662.480469 314.035156 C 666.992188 313.675781 671.289062 313.339844 675.203125 313.148438 C 680.527344 313.148438 685.304688 313.148438 689.574219 313.148438 C 698.195312 313.339844 704.855469 313.722656 709.914062 314.058594 C 720.0625 314.773438 723.953125 315.632812 723.953125 316.515625 C 723.953125 317.351562 720.0625 318.117188 709.867188 318.546875 C 704.757812 318.785156 698.097656 318.882812 689.574219 318.953125 C 685.328125 319.097656 680.648438 319.214844 675.417969 319.382812 C 671.457031 319.667969 667.0625 320.003906 662.480469 320.386719 C 662.480469 326.140625 662.480469 331.824219 662.480469 337.554688 C 746.632812 337.648438 772.414062 339.035156 772.414062 340.753906 C 772.414062 342.449219 746.632812 343.835938 662.480469 343.929688 C 662.433594 351.644531 662.410156 359.355469 662.359375 367.117188 C 665.511719 366.828125 668.542969 366.519531 671.386719 366.398438 C 675.800781 366.398438 679.859375 366.351562 683.464844 366.351562 C 690.722656 366.566406 696.332031 366.996094 700.605469 367.332031 C 709.054688 368 712.304688 368.835938 712.304688 369.71875 C 712.304688 370.601562 709.054688 371.320312 700.511719 371.796875 C 696.210938 372.058594 690.601562 372.082031 683.464844 372.226562 C 679.929688 372.347656 676.015625 372.464844 671.625 372.585938 C 668.734375 372.800781 665.558594 373.15625 662.265625 373.445312 C 662.195312 381.253906 662.027344 388.988281 661.8125 396.75 C 707.289062 396.535156 753.246094 398.277344 798.605469 395.867188 C 805.050781 375.878906 813.191406 357.707031 814.597656 335.90625 C 814.886719 331.394531 815.125 326.855469 815.386719 322.296875 C 786.59375 322.128906 778.742188 320.765625 778.742188 319.121094 C 778.742188 317.472656 786.667969 316.136719 815.648438 315.96875 Z M 816.148438 291.851562 C 816.101562 287.671875 816.054688 283.539062 815.886719 279.410156 C 814.503906 240.320312 807.292969 199.105469 774.753906 175.75 C 715.097656 175.703125 696.546875 174.316406 696.546875 172.597656 C 696.546875 171 712.972656 169.636719 764.632812 169.421875 C 764.488281 169.398438 764.417969 169.351562 764.347656 169.253906 C 727.964844 150.414062 684.875 133.460938 644.027344 129.878906 C 598.191406 125.867188 552.1875 125.367188 506.207031 126.296875 C 460.179688 127.179688 414.128906 129.210938 368.105469 129.210938 C 328.261719 129.164062 290.515625 136.160156 256.976562 156.789062 C 415.179688 156.863281 464.667969 158.246094 464.667969 159.941406 C 464.667969 161.660156 413.152344 163.09375 247.449219 163.09375 C 245.753906 164.335938 244.082031 165.507812 242.414062 166.773438 C 234.035156 173.171875 226.65625 179.476562 220.210938 186.257812 C 287.628906 185.996094 308.707031 187.261719 308.707031 188.957031 C 308.707031 190.652344 286.480469 192.15625 214.554688 192.632812 C 207.105469 201.613281 201.113281 211.761719 196.339844 224.414062 C 190.273438 240.726562 186.644531 256.746094 182.777344 273.679688 C 181.25 280.339844 180.414062 286.40625 180.105469 292.183594 C 199.511719 290.824219 219.398438 291.851562 238.710938 291.730469 C 280.203125 291.46875 321.695312 291.300781 363.160156 291.15625 C 425.589844 290.917969 489.257812 294.285156 551.613281 290.035156 C 551.804688 290.035156 551.996094 290.082031 552.1875 290.105469 C 551.949219 261.953125 549.441406 233.871094 549.800781 205.695312 C 549.800781 202.878906 549.753906 199.628906 549.753906 196.167969 C 542.328125 195.832031 535.5 195.5 529.222656 195.1875 C 522.132812 195.117188 515.78125 195.070312 510.003906 195.019531 C 498.449219 194.78125 489.425781 194.804688 482.503906 194.183594 C 468.726562 192.96875 463.570312 191.917969 463.570312 191.007812 C 463.667969 190.171875 468.992188 189.625 482.644531 189.71875 C 489.472656 189.765625 498.449219 189.242188 509.957031 189.171875 C 515.78125 189.121094 522.179688 189.050781 529.316406 188.957031 C 535.597656 189.121094 542.421875 189.503906 549.800781 189.839844 C 550.015625 182.363281 550.804688 174.484375 553.382812 167.917969 C 550.46875 168.132812 547.699219 168.371094 545.074219 168.46875 C 540.441406 168.417969 536.265625 168.371094 532.515625 168.347656 C 524.996094 168.039062 519.195312 167.535156 514.753906 167.152344 C 505.945312 166.4375 502.628906 165.554688 502.628906 164.671875 C 502.628906 163.835938 505.992188 163.09375 514.898438 162.6875 C 519.363281 162.472656 525.1875 162.523438 532.589844 162.472656 C 536.265625 162.425781 540.347656 162.355469 544.859375 162.257812 C 548.605469 161.996094 552.664062 161.636719 557.011719 161.257812 C 558.300781 159.511719 559.875 157.960938 561.710938 156.648438 C 574.582031 147.765625 590.3125 152.515625 604.804688 152.5625 C 621.515625 152.613281 647.773438 144.921875 660.332031 159.726562 C 665.726562 166.054688 666.539062 176.394531 666.0625 186.589844 C 670.742188 186.972656 675.203125 187.308594 679.261719 187.640625 C 684.324219 187.785156 688.90625 187.90625 693.039062 188.023438 C 701.34375 188.144531 707.839844 188.191406 712.828125 188.453125 C 722.757812 188.90625 726.554688 189.625 726.554688 190.507812 C 726.554688 191.390625 722.808594 192.25 712.898438 192.917969 C 707.933594 193.253906 701.441406 193.683594 693.039062 193.898438 C 688.835938 193.898438 684.179688 193.851562 679 193.851562 C 674.917969 193.636719 670.359375 193.300781 665.609375 192.917969 C 665.128906 198.816406 664.414062 204.382812 664.222656 208.726562 C 662.789062 236.855469 662.527344 265.035156 662.480469 293.234375 C 713.6875 293.710938 765.179688 299.179688 816.148438 291.851562 Z M 869.003906 389.898438 C 869.101562 388.824219 869.171875 387.773438 869.265625 386.769531 C 868.597656 386.507812 868.003906 386.125 867.5 385.671875 C 867.144531 385.671875 866.785156 385.621094 866.355469 385.574219 C 849.738281 382.851562 832.789062 384.238281 816.007812 383.734375 C 815.21875 386.101562 814.359375 388.464844 813.570312 390.851562 C 831.167969 393.050781 851.386719 392.761719 869.003906 389.898438 Z M 899.179688 378.078125 C 900.277344 383.808594 900.492188 390.589844 894.523438 393.71875 C 890.539062 395.820312 885.691406 395.316406 881.226562 395.101562 C 881.226562 395.152344 881.226562 395.246094 881.226562 395.292969 C 881.109375 397.945312 879.414062 400.859375 876.597656 401.40625 C 855.300781 405.441406 831.191406 405.777344 809.609375 403.007812 C 809.488281 403.339844 809.347656 403.722656 809.226562 404.105469 C 808.128906 407.757812 804.808594 408.953125 801.898438 408.355469 C 801.800781 408.355469 801.777344 408.402344 801.730469 408.402344 C 755.179688 411.054688 707.957031 409.453125 661.214844 409.453125 C 661.214844 414.683594 661.214844 424.546875 661.214844 424.546875 C 661.214844 430.753906 654.433594 432.355469 650.804688 429.488281 C 620.058594 429.511719 589.332031 429.773438 558.632812 429.824219 C 554.644531 429.824219 552.617188 426.8125 552.523438 423.734375 C 551.566406 422.347656 551.183594 420.582031 551.496094 418.648438 C 551.851562 416.234375 551.949219 412.488281 551.949219 410.074219 C 534.402344 410.121094 516.878906 410.21875 499.378906 410.121094 C 501.527344 425.476562 496.636719 440.496094 480.066406 451.3125 C 457.554688 466 422.820312 468.054688 403.625 445.679688 C 397.015625 437.964844 392.5 427.027344 390.949219 415.613281 C 390.351562 415.636719 389.757812 415.566406 389.230469 415.351562 C 388.324219 415.019531 387.558594 414.730469 386.867188 414.300781 C 386.054688 414.730469 385.125 415.019531 384.027344 415.066406 C 354.472656 416.164062 325.300781 410.21875 295.722656 410.335938 C 266.332031 410.410156 236.992188 412.273438 207.703125 409.453125 C 206.554688 409.335938 205.625 409 204.8125 408.476562 C 203.546875 408.09375 202.425781 407.304688 201.496094 405.945312 C 187.742188 385.765625 183.160156 360.070312 174.710938 337.386719 C 167.714844 318.5 164.132812 302.90625 168.023438 282.703125 C 175.902344 241.25 185.378906 197.097656 219.398438 169.066406 C 253.179688 141.269531 293.261719 119.585938 337.832031 117.007812 C 390.949219 113.902344 444.832031 114.859375 498.066406 113.761719 C 552.1875 112.710938 608.097656 110.992188 661.8125 119.132812 C 688.121094 123.097656 712.519531 134.273438 737.179688 143.703125 C 753.960938 150.152344 770.242188 156.980469 784.996094 167.417969 C 817.867188 190.722656 826.941406 234.421875 828.277344 272.269531 C 829.136719 295.933594 829.042969 319.980469 826.34375 343.5 C 825.246094 353.339844 822.929688 362.339844 820.160156 371.175781 C 830.425781 371.367188 840.714844 371.175781 850.980469 371.582031 C 851.554688 365.804688 853.035156 360.335938 859.765625 358.640625 C 866.523438 356.921875 874.828125 357.207031 881.324219 359.691406 C 884.617188 360.90625 886.621094 363.867188 885.738281 367.449219 C 885.238281 369.527344 884.902344 371.628906 884.617188 373.777344 C 887.433594 373.613281 890.25 373.445312 893.070312 373.445312 C 895.742188 373.398438 898.65625 375.332031 899.179688 378.078125 Z M 863.65625 370.316406 C 863.488281 371.03125 863.441406 371.75 863.441406 372.511719 C 865.519531 372.777344 867.621094 373.015625 869.722656 373.398438 C 870.652344 373.515625 871.367188 373.828125 871.988281 374.234375 C 872.132812 372.96875 872.25 371.75 872.417969 370.53125 C 870.484375 370.269531 868.550781 370.246094 866.59375 370.316406 C 865.421875 370.410156 863.65625 371.082031 863.65625 370.316406 " fill-opacity="1" fill-rule="nonzero"/><path fill="#e60000" d="M 756.992188 227.710938 C 756.921875 224.894531 756.609375 222.101562 755.847656 219.355469 C 752.097656 214.433594 729.347656 218.734375 724.167969 218.589844 C 717.148438 218.421875 702.15625 213.242188 702.394531 223.984375 C 702.445312 226.136719 702.609375 228.332031 702.707031 230.527344 C 720.777344 228.261719 738.824219 226.875 756.992188 227.710938 Z M 758.1875 247.863281 C 757.875 245.046875 757.589844 242.207031 757.328125 239.339844 C 757.207031 238.003906 757.113281 236.640625 757.113281 235.304688 C 738.992188 234.445312 721.039062 235.855469 703.039062 238.074219 C 703.160156 240.535156 703.328125 242.96875 703.375 245.40625 C 703.375 246.433594 703.375 247.484375 703.328125 248.535156 C 721.589844 248.460938 739.875 247.9375 758.1875 247.863281 Z M 758.757812 258.945312 C 758.808594 257.824219 758.710938 256.628906 758.6875 255.457031 C 740.140625 255.53125 721.613281 256.03125 703.0625 256.128906 C 703.039062 263.339844 704.378906 269.832031 713.113281 269.738281 C 721.660156 269.617188 730.183594 269.617188 738.753906 269.5 C 747.132812 269.378906 758.6875 270.550781 758.757812 258.945312 Z M 766.066406 250.230469 C 766.566406 256.84375 767.785156 268.617188 761.097656 273.035156 C 753.078125 278.359375 741.476562 276.949219 732.285156 277.046875 C 723.832031 277.117188 704.855469 281.628906 698.480469 273.894531 C 695.328125 270 696.261719 262.671875 696.070312 258.15625 C 695.878906 250.492188 696.261719 242.585938 695.566406 234.96875 C 695.066406 229.191406 692.273438 215.007812 699.339844 211.472656 C 703.160156 209.539062 706.40625 209.15625 710.75 209.777344 C 719.726562 211.140625 728.25 210.710938 737.273438 210.542969 C 746.75 210.375 756.777344 206.078125 762.601562 215.722656 C 762.722656 215.9375 762.722656 216.152344 762.816406 216.367188 C 762.867188 216.441406 762.9375 216.535156 762.984375 216.65625 C 766.230469 226.78125 765.300781 239.554688 766.066406 250.230469 " fill-opacity="1" fill-rule="nonzero"/><path fill="#e60000" d="M 636.507812 237.859375 C 636.601562 231.246094 635.671875 224.84375 635.074219 218.253906 C 634.453125 211.570312 635.457031 204.8125 633.617188 198.269531 C 629.847656 193.347656 607.070312 197.648438 601.914062 197.503906 C 594.894531 197.335938 579.902344 192.15625 580.144531 202.902344 C 580.359375 210.089844 580.953125 217.15625 581.121094 224.34375 C 581.289062 234.085938 577.730469 248.796875 590.863281 248.675781 C 599.40625 248.535156 607.929688 248.535156 616.5 248.414062 C 624.878906 248.292969 636.433594 249.464844 636.507812 237.859375 Z M 643.8125 229.144531 C 644.3125 235.757812 645.53125 247.53125 638.824219 251.949219 C 630.824219 257.273438 619.222656 255.886719 610.03125 255.960938 C 601.558594 256.03125 582.601562 260.542969 576.226562 252.808594 C 573.050781 248.914062 574.007812 241.585938 573.816406 237.070312 C 573.625 229.40625 574.007812 221.503906 573.316406 213.886719 C 572.8125 208.105469 570.019531 193.921875 577.0625 190.386719 C 580.90625 188.453125 584.152344 188.070312 588.5 188.691406 C 597.472656 190.054688 605.996094 189.625 615.019531 189.457031 C 624.5 189.289062 634.523438 184.992188 640.351562 194.640625 C 640.46875 194.855469 640.46875 195.070312 640.566406 195.285156 C 640.613281 195.355469 640.683594 195.449219 640.730469 195.570312 C 643.980469 205.695312 643.046875 218.46875 643.8125 229.144531 " fill-opacity="1" fill-rule="nonzero"/><path fill="#e60000" d="M 447.195312 228.210938 C 437.957031 228.164062 428.765625 228.09375 419.527344 228.046875 C 420.957031 241.25 419.261719 254.433594 418.378906 267.78125 C 427.5 267.78125 436.59375 267.78125 445.714844 267.851562 C 445.832031 254.621094 446.765625 241.441406 447.195312 228.210938 Z M 490.90625 228.476562 C 480.519531 228.476562 470.160156 228.425781 459.824219 228.332031 C 459.417969 241.535156 458.488281 254.695312 458.367188 267.898438 C 469.609375 268.019531 480.902344 268.28125 492.195312 268.496094 C 491.695312 255.078125 489.855469 241.824219 490.90625 228.476562 Z M 492.410156 215.820312 C 492.503906 215.34375 492.578125 214.9375 492.671875 214.457031 C 465.933594 213.621094 439.460938 208.65625 412.652344 210.660156 C 412.699219 212.238281 412.746094 213.789062 412.960938 215.34375 C 439.460938 215.484375 465.933594 215.820312 492.410156 215.820312 Z M 509.453125 268.78125 C 517.597656 268.996094 517.621094 281.628906 509.453125 281.4375 C 473.957031 280.578125 438.792969 280.246094 403.269531 280.386719 C 395.128906 280.410156 395.128906 267.78125 403.269531 267.730469 C 404.105469 267.730469 404.890625 267.730469 405.75 267.730469 C 406.632812 254.574219 408.6875 241.105469 406.847656 227.972656 C 405.65625 227.972656 404.484375 227.972656 403.269531 227.972656 C 395.128906 227.925781 395.128906 215.269531 403.269531 215.316406 C 404.007812 215.316406 404.726562 215.316406 405.441406 215.316406 C 405.25 212.859375 405.203125 210.375 404.988281 207.9375 C 404.941406 207.34375 405.105469 206.792969 405.371094 206.316406 C 405.773438 204.859375 406.875 203.546875 408.78125 203.378906 C 438.027344 200.417969 466.84375 206.578125 495.992188 207.078125 C 496.253906 207.078125 496.421875 207.246094 496.636719 207.292969 C 498.546875 207.292969 500.480469 208.65625 500.597656 211.089844 C 500.695312 212.785156 500.480469 214.671875 500.121094 216.367188 C 501.71875 216.320312 503.390625 216.871094 504.992188 216.871094 C 513.109375 216.824219 513.109375 226.351562 504.992188 230.578125 C 504.488281 230.578125 503.964844 230.578125 503.464844 230.578125 C 501.957031 243.234375 504.296875 256.390625 504.847656 269.738281 C 506.375 269.785156 507.925781 268.734375 509.453125 268.78125 " fill-opacity="1" fill-rule="nonzero"/><path fill="#e60000" d="M 463.402344 418.480469 C 468.941406 407.089844 463.882812 392.929688 449.511719 393.503906 C 439.269531 393.933594 429.3125 395.582031 427.117188 407.304688 C 425.136719 417.929688 430.101562 430.875 442.753906 430.230469 C 451.277344 429.824219 458.890625 425.761719 463.402344 418.480469 Z M 462.355469 383.304688 C 478.539062 389.753906 481.164062 408.855469 475.054688 423.207031 C 474.886719 423.734375 474.671875 424.304688 474.339844 424.832031 C 474.050781 425.429688 473.695312 425.90625 473.335938 426.3125 C 464.289062 439.46875 447.21875 446.347656 431.796875 440.949219 C 415.015625 435.050781 410.070312 412.964844 416.949219 397.992188 C 424.539062 381.492188 446.289062 376.90625 462.355469 383.304688 " fill-opacity="1" fill-rule="nonzero"/><path fill="#e60000" d="M 299.636719 228.210938 C 290.398438 228.164062 281.207031 228.09375 271.992188 228.046875 C 273.421875 241.25 271.730469 254.433594 270.84375 267.78125 C 279.941406 267.78125 289.058594 267.78125 298.15625 267.851562 C 298.277344 254.621094 299.207031 241.441406 299.636719 228.210938 Z M 343.347656 228.476562 C 332.988281 228.476562 322.601562 228.425781 312.265625 228.332031 C 311.859375 241.535156 310.929688 254.695312 310.808594 267.898438 C 322.054688 268.019531 333.367188 268.28125 344.660156 268.496094 C 344.160156 255.078125 342.296875 241.824219 343.347656 228.476562 Z M 345.113281 215.820312 C 345.042969 214.386719 344.996094 212.691406 344.945312 211.378906 C 317.875 208.296875 290.707031 211.808594 263.539062 210.253906 C 263.636719 211.808594 263.660156 213.742188 263.707031 215.316406 C 290.828125 215.4375 317.96875 215.820312 345.113281 215.820312 Z M 361.898438 268.78125 C 370.039062 268.996094 370.085938 281.628906 361.898438 281.4375 C 326.398438 280.578125 291.234375 280.246094 255.710938 280.386719 C 247.570312 280.410156 247.570312 267.78125 255.710938 267.730469 C 256.546875 267.730469 257.355469 267.730469 258.191406 267.730469 C 259.074219 254.574219 261.128906 240.726562 259.289062 227.589844 C 258.121094 227.542969 256.925781 227.160156 255.710938 227.160156 C 247.570312 227.113281 247.570312 213.71875 255.710938 213.71875 C 255.878906 213.71875 255.996094 213.71875 256.117188 213.71875 C 256.117188 213.71875 256.09375 210.636719 255.878906 208.511719 C 255.78125 207.558594 256.210938 207.390625 256.878906 206.671875 C 256.640625 204.597656 257.761719 202.398438 260.460938 202.613281 C 289.25 204.691406 318.136719 200.511719 346.90625 204.144531 C 349.125 202.183594 352.492188 204.09375 352.539062 209.753906 C 352.539062 209.753906 352.539062 213.621094 352.707031 216.367188 C 354.257812 216.320312 355.832031 216.871094 357.433594 216.871094 C 365.574219 216.824219 365.574219 226.351562 357.433594 230.578125 C 356.929688 230.578125 356.429688 230.578125 355.90625 230.578125 C 354.402344 243.234375 356.765625 256.390625 357.289062 269.738281 C 358.816406 269.785156 360.367188 268.734375 361.898438 268.78125 " fill-opacity="1" fill-rule="nonzero"/><g fill="#e60000" fill-opacity="1"><g transform="translate(664.668186, 424.5291)"><g><path d="M 0.875 -7.703125 L 8.46875 -7.703125 C 8.550781 -7.703125 8.617188 -7.671875 8.671875 -7.609375 C 8.734375 -7.554688 8.765625 -7.488281 8.765625 -7.40625 L 8.765625 -5.625 C 8.765625 -5.550781 8.734375 -5.484375 8.671875 -5.421875 C 8.617188 -5.359375 8.550781 -5.328125 8.46875 -5.328125 L 6.109375 -5.328125 L 6.109375 -0.296875 C 6.109375 -0.210938 6.078125 -0.140625 6.015625 -0.078125 C 5.953125 -0.0234375 5.882812 0 5.8125 0 L 3.546875 0 C 3.460938 0 3.390625 -0.0234375 3.328125 -0.078125 C 3.273438 -0.140625 3.25 -0.210938 3.25 -0.296875 L 3.25 -5.328125 L 0.875 -5.328125 C 0.800781 -5.328125 0.734375 -5.359375 0.671875 -5.421875 C 0.609375 -5.484375 0.578125 -5.550781 0.578125 -5.625 L 0.578125 -7.40625 C 0.578125 -7.488281 0.609375 -7.554688 0.671875 -7.609375 C 0.734375 -7.671875 0.800781 -7.703125 0.875 -7.703125 Z M 0.875 -7.703125 "/></g></g></g><g fill="#e60000" fill-opacity="1"><g transform="translate(673.571572, 424.5291)"><g><path d="M 9.046875 -0.34375 C 9.054688 -0.3125 9.0625 -0.269531 9.0625 -0.21875 C 9.0625 -0.164062 9.035156 -0.113281 8.984375 -0.0625 C 8.941406 -0.0195312 8.890625 0 8.828125 0 L 6.328125 0 C 6.109375 0 5.953125 -0.09375 5.859375 -0.28125 L 4.890625 -2.453125 L 3.96875 -2.453125 L 3.96875 -0.296875 C 3.96875 -0.210938 3.9375 -0.140625 3.875 -0.078125 C 3.820312 -0.0234375 3.753906 0 3.671875 0 L 1.296875 0 C 1.210938 0 1.140625 -0.0234375 1.078125 -0.078125 C 1.023438 -0.140625 1 -0.210938 1 -0.296875 L 1 -7.40625 C 1 -7.488281 1.023438 -7.554688 1.078125 -7.609375 C 1.140625 -7.671875 1.210938 -7.703125 1.296875 -7.703125 L 5.578125 -7.703125 C 6.578125 -7.703125 7.367188 -7.460938 7.953125 -6.984375 C 8.546875 -6.503906 8.84375 -5.851562 8.84375 -5.03125 C 8.84375 -4.039062 8.457031 -3.320312 7.6875 -2.875 Z M 3.96875 -5.65625 L 3.96875 -4.484375 L 5.34375 -4.484375 C 5.507812 -4.484375 5.632812 -4.535156 5.71875 -4.640625 C 5.8125 -4.753906 5.859375 -4.890625 5.859375 -5.046875 C 5.859375 -5.210938 5.8125 -5.351562 5.71875 -5.46875 C 5.632812 -5.59375 5.507812 -5.65625 5.34375 -5.65625 Z M 3.96875 -5.65625 "/></g></g></g><g fill="#e60000" fill-opacity="1"><g transform="translate(682.474959, 424.5291)"><g><path d="M 2.59375 0 L 0.515625 0 C 0.453125 0 0.394531 -0.0195312 0.34375 -0.0625 C 0.300781 -0.113281 0.28125 -0.160156 0.28125 -0.203125 C 0.28125 -0.253906 0.28125 -0.289062 0.28125 -0.3125 L 2.6875 -7.34375 C 2.75 -7.582031 2.910156 -7.703125 3.171875 -7.703125 L 6.234375 -7.703125 C 6.503906 -7.703125 6.671875 -7.582031 6.734375 -7.34375 L 9.125 -0.3125 C 9.132812 -0.289062 9.140625 -0.253906 9.140625 -0.203125 C 9.140625 -0.160156 9.113281 -0.113281 9.0625 -0.0625 C 9.019531 -0.0195312 8.96875 0 8.90625 0 L 6.8125 0 C 6.582031 0 6.421875 -0.125 6.328125 -0.375 L 6.046875 -1.140625 L 3.359375 -1.140625 L 3.09375 -0.375 C 3 -0.125 2.832031 0 2.59375 0 Z M 5.484375 -3.28125 L 4.703125 -5.578125 L 3.921875 -3.28125 Z M 5.484375 -3.28125 "/></g></g></g><g fill="#e60000" fill-opacity="1"><g transform="translate(691.378344, 424.5291)"><g><path d="M 8.15625 -5.4375 L 6.171875 -5.4375 L 6.171875 -2.25 L 8.15625 -2.25 C 8.238281 -2.25 8.304688 -2.21875 8.359375 -2.15625 C 8.421875 -2.101562 8.453125 -2.035156 8.453125 -1.953125 L 8.453125 -0.296875 C 8.453125 -0.210938 8.421875 -0.140625 8.359375 -0.078125 C 8.304688 -0.0234375 8.238281 0 8.15625 0 L 1.1875 0 C 1.101562 0 1.03125 -0.0234375 0.96875 -0.078125 C 0.914062 -0.140625 0.890625 -0.210938 0.890625 -0.296875 L 0.890625 -1.953125 C 0.890625 -2.035156 0.914062 -2.101562 0.96875 -2.15625 C 1.03125 -2.21875 1.101562 -2.25 1.1875 -2.25 L 3.203125 -2.25 L 3.203125 -5.4375 L 1.1875 -5.4375 C 1.101562 -5.4375 1.03125 -5.46875 0.96875 -5.53125 C 0.914062 -5.59375 0.890625 -5.660156 0.890625 -5.734375 L 0.890625 -7.40625 C 0.890625 -7.488281 0.914062 -7.554688 0.96875 -7.609375 C 1.03125 -7.671875 1.101562 -7.703125 1.1875 -7.703125 L 8.15625 -7.703125 C 8.238281 -7.703125 8.304688 -7.671875 8.359375 -7.609375 C 8.421875 -7.554688 8.453125 -7.488281 8.453125 -7.40625 L 8.453125 -5.734375 C 8.453125 -5.660156 8.421875 -5.59375 8.359375 -5.53125 C 8.304688 -5.46875 8.238281 -5.4375 8.15625 -5.4375 Z M 8.15625 -5.4375 "/></g></g></g><g fill="#e60000" fill-opacity="1"><g transform="translate(700.281732, 424.5291)"><g><path d="M 4.515625 -2.25 L 8.265625 -2.25 C 8.335938 -2.25 8.40625 -2.21875 8.46875 -2.15625 C 8.53125 -2.101562 8.5625 -2.035156 8.5625 -1.953125 L 8.5625 -0.296875 C 8.5625 -0.210938 8.53125 -0.140625 8.46875 -0.078125 C 8.40625 -0.0234375 8.335938 0 8.265625 0 L 1.84375 0 C 1.757812 0 1.6875 -0.0234375 1.625 -0.078125 C 1.570312 -0.140625 1.546875 -0.210938 1.546875 -0.296875 L 1.546875 -7.40625 C 1.546875 -7.488281 1.570312 -7.554688 1.625 -7.609375 C 1.6875 -7.671875 1.757812 -7.703125 1.84375 -7.703125 L 4.21875 -7.703125 C 4.289062 -7.703125 4.359375 -7.671875 4.421875 -7.609375 C 4.484375 -7.554688 4.515625 -7.488281 4.515625 -7.40625 Z M 4.515625 -2.25 "/></g></g></g><g fill="#e60000" fill-opacity="1"><g transform="translate(709.18512, 424.5291)"><g><path d="M 3.84375 -2.140625 L 8.234375 -2.140625 C 8.316406 -2.140625 8.382812 -2.109375 8.4375 -2.046875 C 8.5 -1.992188 8.53125 -1.925781 8.53125 -1.84375 L 8.53125 -0.296875 C 8.53125 -0.210938 8.5 -0.140625 8.4375 -0.078125 C 8.382812 -0.0234375 8.316406 0 8.234375 0 L 1.28125 0 C 1.207031 0 1.140625 -0.0234375 1.078125 -0.078125 C 1.015625 -0.140625 0.984375 -0.210938 0.984375 -0.296875 L 0.984375 -7.40625 C 0.984375 -7.488281 1.015625 -7.554688 1.078125 -7.609375 C 1.140625 -7.671875 1.207031 -7.703125 1.28125 -7.703125 L 8.125 -7.703125 C 8.207031 -7.703125 8.273438 -7.671875 8.328125 -7.609375 C 8.390625 -7.554688 8.421875 -7.488281 8.421875 -7.40625 L 8.421875 -5.859375 C 8.421875 -5.773438 8.390625 -5.703125 8.328125 -5.640625 C 8.273438 -5.585938 8.207031 -5.5625 8.125 -5.5625 L 3.84375 -5.5625 L 3.84375 -4.859375 L 7.53125 -4.859375 C 7.601562 -4.859375 7.671875 -4.828125 7.734375 -4.765625 C 7.796875 -4.710938 7.828125 -4.644531 7.828125 -4.5625 L 7.828125 -3.140625 C 7.828125 -3.054688 7.796875 -2.984375 7.734375 -2.921875 C 7.671875 -2.867188 7.601562 -2.84375 7.53125 -2.84375 L 3.84375 -2.84375 Z M 3.84375 -2.140625 "/></g></g></g><g fill="#e60000" fill-opacity="1"><g transform="translate(718.088508, 424.5291)"><g><path d="M 9.046875 -0.34375 C 9.054688 -0.3125 9.0625 -0.269531 9.0625 -0.21875 C 9.0625 -0.164062 9.035156 -0.113281 8.984375 -0.0625 C 8.941406 -0.0195312 8.890625 0 8.828125 0 L 6.328125 0 C 6.109375 0 5.953125 -0.09375 5.859375 -0.28125 L 4.890625 -2.453125 L 3.96875 -2.453125 L 3.96875 -0.296875 C 3.96875 -0.210938 3.9375 -0.140625 3.875 -0.078125 C 3.820312 -0.0234375 3.753906 0 3.671875 0 L 1.296875 0 C 1.210938 0 1.140625 -0.0234375 1.078125 -0.078125 C 1.023438 -0.140625 1 -0.210938 1 -0.296875 L 1 -7.40625 C 1 -7.488281 1.023438 -7.554688 1.078125 -7.609375 C 1.140625 -7.671875 1.210938 -7.703125 1.296875 -7.703125 L 5.578125 -7.703125 C 6.578125 -7.703125 7.367188 -7.460938 7.953125 -6.984375 C 8.546875 -6.503906 8.84375 -5.851562 8.84375 -5.03125 C 8.84375 -4.039062 8.457031 -3.320312 7.6875 -2.875 Z M 3.96875 -5.65625 L 3.96875 -4.484375 L 5.34375 -4.484375 C 5.507812 -4.484375 5.632812 -4.535156 5.71875 -4.640625 C 5.8125 -4.753906 5.859375 -4.890625 5.859375 -5.046875 C 5.859375 -5.210938 5.8125 -5.351562 5.71875 -5.46875 C 5.632812 -5.59375 5.507812 -5.65625 5.34375 -5.65625 Z M 3.96875 -5.65625 "/></g></g></g><g fill="#e60000" fill-opacity="1"><g transform="translate(726.991896, 424.5291)"><g><path d="M 1.6875 -7.703125 L 5.796875 -7.703125 C 6.835938 -7.703125 7.660156 -7.445312 8.265625 -6.9375 C 8.878906 -6.4375 9.1875 -5.789062 9.1875 -5 C 9.1875 -4.207031 8.925781 -3.578125 8.40625 -3.109375 C 7.894531 -2.640625 7.023438 -2.40625 5.796875 -2.40625 L 4.34375 -2.40625 L 4.34375 -0.296875 C 4.34375 -0.210938 4.3125 -0.140625 4.25 -0.078125 C 4.195312 -0.0234375 4.128906 0 4.046875 0 L 1.6875 0 C 1.601562 0 1.53125 -0.0234375 1.46875 -0.078125 C 1.414062 -0.140625 1.390625 -0.210938 1.390625 -0.296875 L 1.390625 -7.40625 C 1.390625 -7.488281 1.414062 -7.554688 1.46875 -7.609375 C 1.53125 -7.671875 1.601562 -7.703125 1.6875 -7.703125 Z M 4.359375 -5.65625 L 4.359375 -4.4375 L 5.75 -4.4375 C 5.914062 -4.4375 6.050781 -4.488281 6.15625 -4.59375 C 6.269531 -4.695312 6.328125 -4.835938 6.328125 -5.015625 C 6.328125 -5.203125 6.273438 -5.351562 6.171875 -5.46875 C 6.066406 -5.59375 5.925781 -5.65625 5.75 -5.65625 Z M 4.359375 -5.65625 "/></g></g></g><g fill="#e60000" fill-opacity="1"><g transform="translate(735.895283, 424.5291)"><g><path d="M 2.59375 0 L 0.515625 0 C 0.453125 0 0.394531 -0.0195312 0.34375 -0.0625 C 0.300781 -0.113281 0.28125 -0.160156 0.28125 -0.203125 C 0.28125 -0.253906 0.28125 -0.289062 0.28125 -0.3125 L 2.6875 -7.34375 C 2.75 -7.582031 2.910156 -7.703125 3.171875 -7.703125 L 6.234375 -7.703125 C 6.503906 -7.703125 6.671875 -7.582031 6.734375 -7.34375 L 9.125 -0.3125 C 9.132812 -0.289062 9.140625 -0.253906 9.140625 -0.203125 C 9.140625 -0.160156 9.113281 -0.113281 9.0625 -0.0625 C 9.019531 -0.0195312 8.96875 0 8.90625 0 L 6.8125 0 C 6.582031 0 6.421875 -0.125 6.328125 -0.375 L 6.046875 -1.140625 L 3.359375 -1.140625 L 3.09375 -0.375 C 3 -0.125 2.832031 0 2.59375 0 Z M 5.484375 -3.28125 L 4.703125 -5.578125 L 3.921875 -3.28125 Z M 5.484375 -3.28125 "/></g></g></g><g fill="#e60000" fill-opacity="1"><g transform="translate(744.798671, 424.5291)"><g><path d="M 9.046875 -0.34375 C 9.054688 -0.3125 9.0625 -0.269531 9.0625 -0.21875 C 9.0625 -0.164062 9.035156 -0.113281 8.984375 -0.0625 C 8.941406 -0.0195312 8.890625 0 8.828125 0 L 6.328125 0 C 6.109375 0 5.953125 -0.09375 5.859375 -0.28125 L 4.890625 -2.453125 L 3.96875 -2.453125 L 3.96875 -0.296875 C 3.96875 -0.210938 3.9375 -0.140625 3.875 -0.078125 C 3.820312 -0.0234375 3.753906 0 3.671875 0 L 1.296875 0 C 1.210938 0 1.140625 -0.0234375 1.078125 -0.078125 C 1.023438 -0.140625 1 -0.210938 1 -0.296875 L 1 -7.40625 C 1 -7.488281 1.023438 -7.554688 1.078125 -7.609375 C 1.140625 -7.671875 1.210938 -7.703125 1.296875 -7.703125 L 5.578125 -7.703125 C 6.578125 -7.703125 7.367188 -7.460938 7.953125 -6.984375 C 8.546875 -6.503906 8.84375 -5.851562 8.84375 -5.03125 C 8.84375 -4.039062 8.457031 -3.320312 7.6875 -2.875 Z M 3.96875 -5.65625 L 3.96875 -4.484375 L 5.34375 -4.484375 C 5.507812 -4.484375 5.632812 -4.535156 5.71875 -4.640625 C 5.8125 -4.753906 5.859375 -4.890625 5.859375 -5.046875 C 5.859375 -5.210938 5.8125 -5.351562 5.71875 -5.46875 C 5.632812 -5.59375 5.507812 -5.65625 5.34375 -5.65625 Z M 3.96875 -5.65625 "/></g></g></g><g fill="#e60000" fill-opacity="1"><g transform="translate(753.702059, 424.5291)"><g><path d="M 9.21875 -0.390625 C 9.25 -0.335938 9.265625 -0.28125 9.265625 -0.21875 C 9.265625 -0.164062 9.238281 -0.113281 9.1875 -0.0625 C 9.144531 -0.0195312 9.085938 0 9.015625 0 L 6.1875 0 C 6.007812 0 5.875 -0.0546875 5.78125 -0.171875 L 3.875 -2.546875 L 3.875 -0.296875 C 3.875 -0.210938 3.84375 -0.140625 3.78125 -0.078125 C 3.726562 -0.0234375 3.660156 0 3.578125 0 L 1.3125 0 C 1.226562 0 1.15625 -0.0234375 1.09375 -0.078125 C 1.039062 -0.140625 1.015625 -0.210938 1.015625 -0.296875 L 1.015625 -7.40625 C 1.015625 -7.488281 1.039062 -7.554688 1.09375 -7.609375 C 1.15625 -7.671875 1.226562 -7.703125 1.3125 -7.703125 L 3.578125 -7.703125 C 3.660156 -7.703125 3.726562 -7.671875 3.78125 -7.609375 C 3.84375 -7.554688 3.875 -7.488281 3.875 -7.40625 L 3.875 -5.328125 L 5.609375 -7.515625 C 5.722656 -7.640625 5.859375 -7.703125 6.015625 -7.703125 L 8.671875 -7.703125 C 8.734375 -7.703125 8.785156 -7.675781 8.828125 -7.625 C 8.878906 -7.582031 8.90625 -7.53125 8.90625 -7.46875 C 8.90625 -7.40625 8.890625 -7.347656 8.859375 -7.296875 L 6.25 -4.125 Z M 9.21875 -0.390625 "/></g></g></g><g fill="#e60000" fill-opacity="1"><g transform="translate(762.605442, 424.5291)"><g><path d="M 3.515625 -2.625 L 5.828125 -2.625 C 5.910156 -2.625 5.976562 -2.59375 6.03125 -2.53125 C 6.09375 -2.46875 6.125 -2.398438 6.125 -2.328125 L 6.125 -0.296875 C 6.125 -0.210938 6.09375 -0.140625 6.03125 -0.078125 C 5.976562 -0.0234375 5.910156 0 5.828125 0 L 3.515625 0 C 3.441406 0 3.375 -0.0234375 3.3125 -0.078125 C 3.25 -0.140625 3.21875 -0.210938 3.21875 -0.296875 L 3.21875 -2.328125 C 3.21875 -2.398438 3.25 -2.46875 3.3125 -2.53125 C 3.375 -2.59375 3.441406 -2.625 3.515625 -2.625 Z M 3.515625 -2.625 "/></g></g></g><g fill="#e60000" fill-opacity="1"><g transform="translate(771.50883, 424.5291)"><g><path d="M 4.515625 -2.25 L 8.265625 -2.25 C 8.335938 -2.25 8.40625 -2.21875 8.46875 -2.15625 C 8.53125 -2.101562 8.5625 -2.035156 8.5625 -1.953125 L 8.5625 -0.296875 C 8.5625 -0.210938 8.53125 -0.140625 8.46875 -0.078125 C 8.40625 -0.0234375 8.335938 0 8.265625 0 L 1.84375 0 C 1.757812 0 1.6875 -0.0234375 1.625 -0.078125 C 1.570312 -0.140625 1.546875 -0.210938 1.546875 -0.296875 L 1.546875 -7.40625 C 1.546875 -7.488281 1.570312 -7.554688 1.625 -7.609375 C 1.6875 -7.671875 1.757812 -7.703125 1.84375 -7.703125 L 4.21875 -7.703125 C 4.289062 -7.703125 4.359375 -7.671875 4.421875 -7.609375 C 4.484375 -7.554688 4.515625 -7.488281 4.515625 -7.40625 Z M 4.515625 -2.25 "/></g></g></g><g fill="#e60000" fill-opacity="1"><g transform="translate(780.412217, 424.5291)"><g><path d="M 8.765625 -4.515625 L 8.765625 -3.171875 C 8.765625 -2.421875 8.582031 -1.789062 8.21875 -1.28125 C 7.851562 -0.78125 7.375 -0.421875 6.78125 -0.203125 C 6.1875 0.00390625 5.484375 0.109375 4.671875 0.109375 C 3.867188 0.109375 3.171875 0.00390625 2.578125 -0.203125 C 1.984375 -0.421875 1.5 -0.78125 1.125 -1.28125 C 0.757812 -1.789062 0.578125 -2.429688 0.578125 -3.203125 L 0.578125 -4.5 C 0.578125 -5.601562 0.957031 -6.429688 1.71875 -6.984375 C 2.476562 -7.535156 3.460938 -7.8125 4.671875 -7.8125 C 5.878906 -7.8125 6.863281 -7.535156 7.625 -6.984375 C 8.382812 -6.429688 8.765625 -5.609375 8.765625 -4.515625 Z M 3.546875 -4.734375 L 3.546875 -2.96875 C 3.546875 -2.664062 3.644531 -2.429688 3.84375 -2.265625 C 4.050781 -2.109375 4.328125 -2.03125 4.671875 -2.03125 C 5.015625 -2.03125 5.285156 -2.113281 5.484375 -2.28125 C 5.691406 -2.445312 5.796875 -2.679688 5.796875 -2.984375 L 5.796875 -4.71875 C 5.796875 -5.019531 5.691406 -5.253906 5.484375 -5.421875 C 5.285156 -5.585938 5.015625 -5.671875 4.671875 -5.671875 C 4.328125 -5.671875 4.050781 -5.585938 3.84375 -5.421875 C 3.644531 -5.265625 3.546875 -5.035156 3.546875 -4.734375 Z M 3.546875 -4.734375 "/></g></g></g><g fill="#e60000" fill-opacity="1"><g transform="translate(789.315605, 424.5291)"><g><path d="M 4.515625 -2.25 L 8.265625 -2.25 C 8.335938 -2.25 8.40625 -2.21875 8.46875 -2.15625 C 8.53125 -2.101562 8.5625 -2.035156 8.5625 -1.953125 L 8.5625 -0.296875 C 8.5625 -0.210938 8.53125 -0.140625 8.46875 -0.078125 C 8.40625 -0.0234375 8.335938 0 8.265625 0 L 1.84375 0 C 1.757812 0 1.6875 -0.0234375 1.625 -0.078125 C 1.570312 -0.140625 1.546875 -0.210938 1.546875 -0.296875 L 1.546875 -7.40625 C 1.546875 -7.488281 1.570312 -7.554688 1.625 -7.609375 C 1.6875 -7.671875 1.757812 -7.703125 1.84375 -7.703125 L 4.21875 -7.703125 C 4.289062 -7.703125 4.359375 -7.671875 4.421875 -7.609375 C 4.484375 -7.554688 4.515625 -7.488281 4.515625 -7.40625 Z M 4.515625 -2.25 "/></g></g></g></svg>